<?xml version="1.0" encoding="UTF-8" standalone="no"?><svg xmlns="http://www.w3.org/2000/svg" xmlns:xlink="http://www.w3.org/1999/xlink" contentScriptType="application/ecmascript" contentStyleType="text/css" height="129px" preserveAspectRatio="none" style="width:204px;height:129px;" version="1.1" viewBox="0 0 204 129" width="204px" zoomAndPan="magnify"><defs><filter height="300%" id="f1j0oj781pf5ls" width="300%" x="-1" y="-1"><feGaussianBlur result="blurOut" stdDeviation="2.0"/><feColorMatrix in="blurOut" result="blurOut2" type="matrix" values="0 0 0 0 0 0 0 0 0 0 0 0 0 0 0 0 0 0 .4 0"/><feOffset dx="4.0" dy="4.0" in="blurOut2" result="blurOut3"/><feBlend in="SourceGraphic" in2="blurOut3" mode="normal"/></filter></defs><g><!--MD5=[33f3df4d081dd7b92c1d1ebf63857991]
class CarSharing.provided.Customer--><a href="Customer.html" target="_top" title="Customer.html" xlink:actuate="onRequest" xlink:href="Customer.html" xlink:show="new" xlink:title="Customer.html" xlink:type="simple"><rect codeLine="5" fill="#FEFECE" filter="url(#f1j0oj781pf5ls)" height="92.3516" id="CarSharing.provided.Customer" style="stroke: #A80036; stroke-width: 1.5;" width="146" x="23" y="7"/><ellipse cx="44.3" cy="25.9688" fill="#ADD1B2" rx="11" ry="11" style="stroke: #A80036; stroke-width: 1.0;"/><path d="M47.2688,31.6094 Q46.6906,31.9063 46.05,32.0469 Q45.4094,32.2031 44.7063,32.2031 Q42.2063,32.2031 40.8781,30.5625 Q39.5656,28.9063 39.5656,25.7813 Q39.5656,22.6563 40.8781,21 Q42.2063,19.3438 44.7063,19.3438 Q45.4094,19.3438 46.05,19.5 Q46.7063,19.6563 47.2688,19.9531 L47.2688,22.6719 Q46.6438,22.0938 46.05,21.8281 Q45.4563,21.5469 44.8313,21.5469 Q43.4875,21.5469 42.8,22.625 Q42.1125,23.6875 42.1125,25.7813 Q42.1125,27.875 42.8,28.9531 Q43.4875,30.0156 44.8313,30.0156 Q45.4563,30.0156 46.05,29.75 Q46.6438,29.4688 47.2688,28.8906 L47.2688,31.6094 Z "/><text fill="#000000" font-family="sans-serif" font-size="14" lengthAdjust="spacingAndGlyphs" textLength="68" x="75.7" y="24.9951">Customer</text><text fill="#000000" font-family="sans-serif" font-size="10" lengthAdjust="spacingAndGlyphs" textLength="100" x="59.7" y="37.5791">CarSharing.provided</text><line style="stroke: #A80036; stroke-width: 1.5;" x1="24" x2="168" y1="44.9375" y2="44.9375"/><rect fill="none" height="6" style="stroke: #C82930; stroke-width: 1.0;" width="6" x="31" y="52.9375"/><text fill="#000000" font-family="sans-serif" font-size="11" lengthAdjust="spacingAndGlyphs" textLength="74" x="43" y="59.1479">name: String</text><line style="stroke: #A80036; stroke-width: 1.5;" x1="24" x2="168" y1="65.7422" y2="65.7422"/><ellipse cx="34" cy="76.7422" fill="#84BE84" rx="3" ry="3" style="stroke: #038048; stroke-width: 1.0;"/><text fill="#000000" font-family="sans-serif" font-size="11" lengthAdjust="spacingAndGlyphs" textLength="98" x="43" y="79.9526">Customer(String)</text><ellipse cx="34" cy="89.5469" fill="#84BE84" rx="3" ry="3" style="stroke: #038048; stroke-width: 1.0;"/><text fill="#000000" font-family="sans-serif" font-size="11" lengthAdjust="spacingAndGlyphs" textLength="120" x="43" y="92.7573">Customer(Customer)</text></a><text fill="#888888" font-family="sans-serif" font-size="10" lengthAdjust="spacingAndGlyphs" textLength="192" x="0" y="115.6338">UMLDoclet 2.0.12, PlantUML 1.2020.16</text><!--MD5=[073936f7958eb173e937624e01ea65f9]
@startuml
    set namespaceSeparator none
    hide empty fields
    hide empty methods

    class "<size:14>Customer\n<size:10>CarSharing.provided" as CarSharing.provided.Customer [[Customer.html]] {
        -name: String
        +Customer(String)
        +Customer(Customer)
    }

    center footer UMLDoclet 2.0.12, PlantUML 1.2020.16
@enduml

PlantUML version 1.2020.16(Sun Aug 23 22:20:43 CEST 2020)
(APACHE source distribution)
Java Runtime: OpenJDK Runtime Environment
JVM: OpenJDK 64-Bit Server VM
Default Encoding: ANSI_X3.4-1968
Language: en
Country: US
--></g></svg>