<?xml version="1.0" encoding="UTF-8" standalone="no"?><svg xmlns="http://www.w3.org/2000/svg" xmlns:xlink="http://www.w3.org/1999/xlink" contentScriptType="application/ecmascript" contentStyleType="text/css" height="359px" preserveAspectRatio="none" style="width:218px;height:359px;" version="1.1" viewBox="0 0 218 359" width="218px" zoomAndPan="magnify"><defs><filter height="300%" id="f1pt92yemudp5g" width="300%" x="-1" y="-1"><feGaussianBlur result="blurOut" stdDeviation="2.0"/><feColorMatrix in="blurOut" result="blurOut2" type="matrix" values="0 0 0 0 0 0 0 0 0 0 0 0 0 0 0 0 0 0 .4 0"/><feOffset dx="4.0" dy="4.0" in="blurOut2" result="blurOut3"/><feBlend in="SourceGraphic" in2="blurOut3" mode="normal"/></filter></defs><g><!--MD5=[5536566a6aa9f9e3bcc77aa82048f3a1]
class CarSharing.provided.DateTime--><a href="DateTime.html" target="_top" title="DateTime.html" xlink:actuate="onRequest" xlink:href="DateTime.html" xlink:show="new" xlink:title="DateTime.html" xlink:type="simple"><rect codeLine="5" fill="#FEFECE" filter="url(#f1pt92yemudp5g)" height="194.7891" id="CarSharing.provided.DateTime" style="stroke: #A80036; stroke-width: 1.5;" width="190" x="9" y="129"/><ellipse cx="50.1" cy="147.9688" fill="#ADD1B2" rx="11" ry="11" style="stroke: #A80036; stroke-width: 1.0;"/><path d="M53.0688,153.6094 Q52.4906,153.9063 51.85,154.0469 Q51.2094,154.2031 50.5063,154.2031 Q48.0063,154.2031 46.6781,152.5625 Q45.3656,150.9063 45.3656,147.7813 Q45.3656,144.6563 46.6781,143 Q48.0063,141.3438 50.5063,141.3438 Q51.2094,141.3438 51.85,141.5 Q52.5063,141.6563 53.0688,141.9531 L53.0688,144.6719 Q52.4438,144.0938 51.85,143.8281 Q51.2563,143.5469 50.6313,143.5469 Q49.2875,143.5469 48.6,144.625 Q47.9125,145.6875 47.9125,147.7813 Q47.9125,149.875 48.6,150.9531 Q49.2875,152.0156 50.6313,152.0156 Q51.2563,152.0156 51.85,151.75 Q52.4438,151.4688 53.0688,150.8906 L53.0688,153.6094 Z "/><text fill="#000000" font-family="sans-serif" font-size="14" lengthAdjust="spacingAndGlyphs" textLength="67" x="86.4" y="146.9951">DateTime</text><text fill="#000000" font-family="sans-serif" font-size="10" lengthAdjust="spacingAndGlyphs" textLength="100" x="69.9" y="159.5791">CarSharing.provided</text><line style="stroke: #A80036; stroke-width: 1.5;" x1="10" x2="198" y1="166.9375" y2="166.9375"/><polygon fill="none" points="20,173.9375,16,179.9375,24,179.9375" style="stroke: #1963A0; stroke-width: 1.0;"/><text fill="#000000" font-family="sans-serif" font-size="11" lengthAdjust="spacingAndGlyphs" textLength="42" x="29" y="181.1479">day: int</text><polygon fill="none" points="20,186.7422,16,192.7422,24,192.7422" style="stroke: #1963A0; stroke-width: 1.0;"/><text fill="#000000" font-family="sans-serif" font-size="11" lengthAdjust="spacingAndGlyphs" textLength="58" x="29" y="193.9526">month: int</text><polygon fill="none" points="20,199.5469,16,205.5469,24,205.5469" style="stroke: #1963A0; stroke-width: 1.0;"/><text fill="#000000" font-family="sans-serif" font-size="11" lengthAdjust="spacingAndGlyphs" textLength="47" x="29" y="206.7573">year: int</text><polygon fill="none" points="20,212.3516,16,218.3516,24,218.3516" style="stroke: #1963A0; stroke-width: 1.0;"/><text fill="#000000" font-family="sans-serif" font-size="11" lengthAdjust="spacingAndGlyphs" textLength="34" x="29" y="219.562">hr: int</text><polygon fill="none" points="20,225.1563,16,231.1563,24,231.1563" style="stroke: #1963A0; stroke-width: 1.0;"/><text fill="#000000" font-family="sans-serif" font-size="11" lengthAdjust="spacingAndGlyphs" textLength="43" x="29" y="232.3667">min: int</text><line style="stroke: #A80036; stroke-width: 1.5;" x1="10" x2="198" y1="238.9609" y2="238.9609"/><ellipse cx="20" cy="249.9609" fill="#84BE84" rx="3" ry="3" style="stroke: #038048; stroke-width: 1.0;"/><text fill="#000000" font-family="sans-serif" font-size="11" lengthAdjust="spacingAndGlyphs" textLength="164" x="29" y="253.1714">DateTime(int, int, int, int, int)</text><ellipse cx="20" cy="262.7656" fill="#84BE84" rx="3" ry="3" style="stroke: #038048; stroke-width: 1.0;"/><text fill="#000000" font-family="sans-serif" font-size="11" lengthAdjust="spacingAndGlyphs" textLength="116" x="29" y="265.9761">DateTime(DateTime)</text><ellipse cx="20" cy="275.5703" fill="#84BE84" rx="3" ry="3" style="stroke: #038048; stroke-width: 1.0;"/><text fill="#000000" font-family="sans-serif" font-size="11" lengthAdjust="spacingAndGlyphs" textLength="148" x="29" y="278.7808">compareTo(DateTime): int</text><ellipse cx="20" cy="288.375" fill="#84BE84" rx="3" ry="3" style="stroke: #038048; stroke-width: 1.0;"/><text fill="#000000" font-family="sans-serif" font-size="11" lengthAdjust="spacingAndGlyphs" textLength="51" x="29" y="291.5854">ts(): long</text><rect fill="#F24D5C" height="6" style="stroke: #C82930; stroke-width: 1.0;" width="6" x="17" y="298.1797"/><text fill="#000000" font-family="sans-serif" font-size="11" lengthAdjust="spacingAndGlyphs" textLength="58" x="29" y="304.3901">uts(): long</text><ellipse cx="20" cy="313.9844" fill="#84BE84" rx="3" ry="3" style="stroke: #038048; stroke-width: 1.0;"/><text fill="#000000" font-family="sans-serif" font-size="11" lengthAdjust="spacingAndGlyphs" textLength="112" x="29" y="317.1948">diff(DateTime): long</text></a><!--MD5=[008d82c49f85b4d489e041917c99c847]
class java.lang.Comparable--><rect codeLine="19" fill="#FEFECE" filter="url(#f1pt92yemudp5g)" height="58.7422" id="java.lang.Comparable" style="stroke: #A80036; stroke-width: 1.5;" width="178" x="15" y="10"/><ellipse cx="30" cy="28.9688" fill="#B4A7E5" rx="11" ry="11" style="stroke: #A80036; stroke-width: 1.0;"/><path d="M25.9219,24.7344 L25.9219,22.5781 L33.3125,22.5781 L33.3125,24.7344 L30.8438,24.7344 L30.8438,32.8125 L33.3125,32.8125 L33.3125,34.9688 L25.9219,34.9688 L25.9219,32.8125 L28.3906,32.8125 L28.3906,24.7344 L25.9219,24.7344 Z "/><text fill="#000000" font-family="sans-serif" font-size="14" font-style="italic" lengthAdjust="spacingAndGlyphs" textLength="83" x="44" y="27.9951">Comparable</text><text fill="#000000" font-family="sans-serif" font-size="10" font-style="italic" lengthAdjust="spacingAndGlyphs" textLength="45" x="63" y="40.5791">java.lang</text><rect fill="#FFFFFF" height="15.9688" style="stroke: #000000; stroke-width: 1.0; stroke-dasharray: 2.0,2.0;" width="61" x="135" y="7"/><text fill="#000000" font-family="sans-serif" font-size="12" font-style="italic" lengthAdjust="spacingAndGlyphs" textLength="59" x="136" y="19.1387">DateTime</text><line style="stroke: #A80036; stroke-width: 1.5;" x1="16" x2="192" y1="47.9375" y2="47.9375"/><ellipse cx="26" cy="58.9375" fill="#84BE84" rx="3" ry="3" style="stroke: #038048; stroke-width: 1.0;"/><text fill="#000000" font-family="sans-serif" font-size="11" font-style="italic" lengthAdjust="spacingAndGlyphs" textLength="148" x="35" y="62.1479">compareTo(DateTime): int</text><!--MD5=[903455629941aae1d576ba49c42ea5e1]
reverse link java.lang.Comparable to CarSharing.provided.DateTime--><path codeLine="23" d="M104,89.3 C104,101.51 104,115.04 104,128.7 " fill="none" id="java.lang.Comparable-backto-CarSharing.provided.DateTime" style="stroke: #A80036; stroke-width: 1.0; stroke-dasharray: 7.0,7.0;"/><polygon fill="none" points="97,89,104,69,111,89,97,89" style="stroke: #A80036; stroke-width: 1.0;"/><text fill="#888888" font-family="sans-serif" font-size="10" lengthAdjust="spacingAndGlyphs" textLength="192" x="4" y="346.0713">UMLDoclet 2.0.12, PlantUML 1.2020.16</text><!--MD5=[b309a04bc70a9f59fafe274803ef8d3c]
@startuml
    set namespaceSeparator none
    hide empty fields
    hide empty methods

    class "<size:14>DateTime\n<size:10>CarSharing.provided" as CarSharing.provided.DateTime [[DateTime.html]] {
        ~day: int
        ~month: int
        ~year: int
        ~hr: int
        ~min: int
        +DateTime(int, int, int, int, int)
        +DateTime(DateTime)
        +compareTo(DateTime): int
        +ts(): long
        -uts(): long
        +diff(DateTime): long
    }

    interface "<size:14>Comparable\n<size:10>java.lang" as java.lang.Comparable<DateTime> {
        {abstract} +compareTo(DateTime): int
    }

    java.lang.Comparable <|.. CarSharing.provided.DateTime

    center footer UMLDoclet 2.0.12, PlantUML 1.2020.16
@enduml

PlantUML version 1.2020.16(Sun Aug 23 22:20:43 CEST 2020)
(APACHE source distribution)
Java Runtime: OpenJDK Runtime Environment
JVM: OpenJDK 64-Bit Server VM
Default Encoding: ANSI_X3.4-1968
Language: en
Country: US
--></g></svg>