<?xml version="1.0" encoding="UTF-8" standalone="no"?><svg xmlns="http://www.w3.org/2000/svg" xmlns:xlink="http://www.w3.org/1999/xlink" contentScriptType="application/ecmascript" contentStyleType="text/css" height="761px" preserveAspectRatio="none" style="width:1205px;height:761px;" version="1.1" viewBox="0 0 1205 761" width="1205px" zoomAndPan="magnify"><defs><filter height="300%" id="faelnpqtepbwt" width="300%" x="-1" y="-1"><feGaussianBlur result="blurOut" stdDeviation="2.0"/><feColorMatrix in="blurOut" result="blurOut2" type="matrix" values="0 0 0 0 0 0 0 0 0 0 0 0 0 0 0 0 0 0 .4 0"/><feOffset dx="4.0" dy="4.0" in="blurOut2" result="blurOut3"/><feBlend in="SourceGraphic" in2="blurOut3" mode="normal"/></filter></defs><g><!--MD5=[6d5f040d5b079ef7e2ae86390ca05f2d]
cluster CarSharing.provided--><polygon fill="#FFFFFF" filter="url(#faelnpqtepbwt)" points="16,347,184,347,191,369.2969,1183,369.2969,1183,733,16,733,16,347" style="stroke: #000000; stroke-width: 1.5;"/><line style="stroke: #000000; stroke-width: 1.5;" x1="16" x2="191" y1="369.2969" y2="369.2969"/><text fill="#000000" font-family="sans-serif" font-size="14" font-weight="bold" lengthAdjust="spacingAndGlyphs" textLength="162" x="20" y="361.9951">CarSharing.provided</text><!--MD5=[aa8f7b917213fcc1c2766e2d59b49067]
cluster java.lang--><polygon fill="#FFFFFF" filter="url(#faelnpqtepbwt)" points="107,108.5,182,108.5,189,130.7969,267,130.7969,267,220.5,107,220.5,107,108.5" style="stroke: #000000; stroke-width: 1.5;"/><line style="stroke: #000000; stroke-width: 1.5;" x1="107" x2="189" y1="130.7969" y2="130.7969"/><text fill="#000000" font-family="sans-serif" font-size="14" font-weight="bold" lengthAdjust="spacingAndGlyphs" textLength="69" x="111" y="123.4951">java.lang</text><!--MD5=[7db3c59d38ae5b37b484eb2df9368145]
cluster java.util--><polygon fill="#FFFFFF" filter="url(#faelnpqtepbwt)" points="291,6,357,6,364,28.2969,889,28.2969,889,323,291,323,291,6" style="stroke: #000000; stroke-width: 1.5;"/><line style="stroke: #000000; stroke-width: 1.5;" x1="291" x2="364" y1="28.2969" y2="28.2969"/><text fill="#000000" font-family="sans-serif" font-size="14" font-weight="bold" lengthAdjust="spacingAndGlyphs" textLength="60" x="295" y="20.9951">java.util</text><!--MD5=[5e59ac36b68210065f14232c771e6f0c]
class CarSharing.provided.Car--><a href="Car.html" target="_top" title="Car.html" xlink:actuate="onRequest" xlink:href="Car.html" xlink:show="new" xlink:title="Car.html" xlink:type="simple"><rect codeLine="3" fill="#FEFECE" filter="url(#faelnpqtepbwt)" height="163.2422" id="CarSharing.provided.Car" style="stroke: #A80036; stroke-width: 1.5;" width="185" x="607.5" y="395"/><ellipse cx="685.25" cy="411" fill="#ADD1B2" rx="11" ry="11" style="stroke: #A80036; stroke-width: 1.0;"/><path d="M688.2188,416.6406 Q687.6406,416.9375 687,417.0781 Q686.3594,417.2344 685.6563,417.2344 Q683.1563,417.2344 681.8281,415.5938 Q680.5156,413.9375 680.5156,410.8125 Q680.5156,407.6875 681.8281,406.0313 Q683.1563,404.375 685.6563,404.375 Q686.3594,404.375 687,404.5313 Q687.6563,404.6875 688.2188,404.9844 L688.2188,407.7031 Q687.5938,407.125 687,406.8594 Q686.4063,406.5781 685.7813,406.5781 Q684.4375,406.5781 683.75,407.6563 Q683.0625,408.7188 683.0625,410.8125 Q683.0625,412.9063 683.75,413.9844 Q684.4375,415.0469 685.7813,415.0469 Q686.4063,415.0469 687,414.7813 Q687.5938,414.5 688.2188,413.9219 L688.2188,416.6406 Z "/><text fill="#000000" font-family="sans-serif" font-size="12" lengthAdjust="spacingAndGlyphs" textLength="21" x="705.75" y="415.1543">Car</text><line style="stroke: #A80036; stroke-width: 1.5;" x1="608.5" x2="791.5" y1="427" y2="427"/><rect fill="none" height="6" style="stroke: #C82930; stroke-width: 1.0;" width="6" x="615.5" y="435"/><text fill="#000000" font-family="sans-serif" font-size="11" lengthAdjust="spacingAndGlyphs" textLength="73" x="627.5" y="441.2104">make: String</text><rect fill="none" height="6" style="stroke: #C82930; stroke-width: 1.0;" width="6" x="615.5" y="447.8047"/><text fill="#000000" font-family="sans-serif" font-size="11" lengthAdjust="spacingAndGlyphs" textLength="77" x="627.5" y="454.0151">model: String</text><rect fill="none" height="6" style="stroke: #C82930; stroke-width: 1.0;" width="6" x="615.5" y="460.6094"/><text fill="#000000" font-family="sans-serif" font-size="11" lengthAdjust="spacingAndGlyphs" textLength="108" x="627.5" y="466.8198">registration: String</text><line style="stroke: #A80036; stroke-width: 1.5;" x1="608.5" x2="791.5" y1="473.4141" y2="473.4141"/><ellipse cx="618.5" cy="484.4141" fill="#84BE84" rx="3" ry="3" style="stroke: #038048; stroke-width: 1.0;"/><text fill="#000000" font-family="sans-serif" font-size="11" lengthAdjust="spacingAndGlyphs" textLength="28" x="627.5" y="487.6245">Car()</text><ellipse cx="618.5" cy="497.2188" fill="#84BE84" rx="3" ry="3" style="stroke: #038048; stroke-width: 1.0;"/><text fill="#000000" font-family="sans-serif" font-size="11" lengthAdjust="spacingAndGlyphs" textLength="48" x="627.5" y="500.4292">Car(Car)</text><ellipse cx="618.5" cy="510.0234" fill="#84BE84" rx="3" ry="3" style="stroke: #038048; stroke-width: 1.0;"/><text fill="#000000" font-family="sans-serif" font-size="11" lengthAdjust="spacingAndGlyphs" textLength="146" x="627.5" y="513.2339">Car(String, String, String)</text><ellipse cx="618.5" cy="522.8281" fill="#84BE84" rx="3" ry="3" style="stroke: #038048; stroke-width: 1.0;"/><text fill="#000000" font-family="sans-serif" font-size="11" lengthAdjust="spacingAndGlyphs" textLength="120" x="627.5" y="526.0386">setMake(String): void</text><ellipse cx="618.5" cy="535.6328" fill="#84BE84" rx="3" ry="3" style="stroke: #038048; stroke-width: 1.0;"/><text fill="#000000" font-family="sans-serif" font-size="11" lengthAdjust="spacingAndGlyphs" textLength="124" x="627.5" y="538.8433">setModel(String): void</text><ellipse cx="618.5" cy="548.4375" fill="#84BE84" rx="3" ry="3" style="stroke: #038048; stroke-width: 1.0;"/><text fill="#000000" font-family="sans-serif" font-size="11" lengthAdjust="spacingAndGlyphs" textLength="159" x="627.5" y="551.6479">setRegistration(String): void</text></a><!--MD5=[5536566a6aa9f9e3bcc77aa82048f3a1]
class CarSharing.provided.DateTime--><a href="DateTime.html" target="_top" title="DateTime.html" xlink:actuate="onRequest" xlink:href="DateTime.html" xlink:show="new" xlink:title="DateTime.html" xlink:type="simple"><rect codeLine="15" fill="#FEFECE" filter="url(#faelnpqtepbwt)" height="188.8516" id="CarSharing.provided.DateTime" style="stroke: #A80036; stroke-width: 1.5;" width="190" x="187" y="382"/><ellipse cx="248.25" cy="398" fill="#ADD1B2" rx="11" ry="11" style="stroke: #A80036; stroke-width: 1.0;"/><path d="M251.2188,403.6406 Q250.6406,403.9375 250,404.0781 Q249.3594,404.2344 248.6563,404.2344 Q246.1563,404.2344 244.8281,402.5938 Q243.5156,400.9375 243.5156,397.8125 Q243.5156,394.6875 244.8281,393.0313 Q246.1563,391.375 248.6563,391.375 Q249.3594,391.375 250,391.5313 Q250.6563,391.6875 251.2188,391.9844 L251.2188,394.7031 Q250.5938,394.125 250,393.8594 Q249.4063,393.5781 248.7813,393.5781 Q247.4375,393.5781 246.75,394.6563 Q246.0625,395.7188 246.0625,397.8125 Q246.0625,399.9063 246.75,400.9844 Q247.4375,402.0469 248.7813,402.0469 Q249.4063,402.0469 250,401.7813 Q250.5938,401.5 251.2188,400.9219 L251.2188,403.6406 Z "/><text fill="#000000" font-family="sans-serif" font-size="12" lengthAdjust="spacingAndGlyphs" textLength="59" x="268.75" y="402.1543">DateTime</text><line style="stroke: #A80036; stroke-width: 1.5;" x1="188" x2="376" y1="414" y2="414"/><polygon fill="none" points="198,421,194,427,202,427" style="stroke: #1963A0; stroke-width: 1.0;"/><text fill="#000000" font-family="sans-serif" font-size="11" lengthAdjust="spacingAndGlyphs" textLength="42" x="207" y="428.2104">day: int</text><polygon fill="none" points="198,433.8047,194,439.8047,202,439.8047" style="stroke: #1963A0; stroke-width: 1.0;"/><text fill="#000000" font-family="sans-serif" font-size="11" lengthAdjust="spacingAndGlyphs" textLength="58" x="207" y="441.0151">month: int</text><polygon fill="none" points="198,446.6094,194,452.6094,202,452.6094" style="stroke: #1963A0; stroke-width: 1.0;"/><text fill="#000000" font-family="sans-serif" font-size="11" lengthAdjust="spacingAndGlyphs" textLength="47" x="207" y="453.8198">year: int</text><polygon fill="none" points="198,459.4141,194,465.4141,202,465.4141" style="stroke: #1963A0; stroke-width: 1.0;"/><text fill="#000000" font-family="sans-serif" font-size="11" lengthAdjust="spacingAndGlyphs" textLength="34" x="207" y="466.6245">hr: int</text><polygon fill="none" points="198,472.2188,194,478.2188,202,478.2188" style="stroke: #1963A0; stroke-width: 1.0;"/><text fill="#000000" font-family="sans-serif" font-size="11" lengthAdjust="spacingAndGlyphs" textLength="43" x="207" y="479.4292">min: int</text><line style="stroke: #A80036; stroke-width: 1.5;" x1="188" x2="376" y1="486.0234" y2="486.0234"/><ellipse cx="198" cy="497.0234" fill="#84BE84" rx="3" ry="3" style="stroke: #038048; stroke-width: 1.0;"/><text fill="#000000" font-family="sans-serif" font-size="11" lengthAdjust="spacingAndGlyphs" textLength="164" x="207" y="500.2339">DateTime(int, int, int, int, int)</text><ellipse cx="198" cy="509.8281" fill="#84BE84" rx="3" ry="3" style="stroke: #038048; stroke-width: 1.0;"/><text fill="#000000" font-family="sans-serif" font-size="11" lengthAdjust="spacingAndGlyphs" textLength="116" x="207" y="513.0386">DateTime(DateTime)</text><ellipse cx="198" cy="522.6328" fill="#84BE84" rx="3" ry="3" style="stroke: #038048; stroke-width: 1.0;"/><text fill="#000000" font-family="sans-serif" font-size="11" lengthAdjust="spacingAndGlyphs" textLength="148" x="207" y="525.8433">compareTo(DateTime): int</text><ellipse cx="198" cy="535.4375" fill="#84BE84" rx="3" ry="3" style="stroke: #038048; stroke-width: 1.0;"/><text fill="#000000" font-family="sans-serif" font-size="11" lengthAdjust="spacingAndGlyphs" textLength="51" x="207" y="538.6479">ts(): long</text><rect fill="#F24D5C" height="6" style="stroke: #C82930; stroke-width: 1.0;" width="6" x="195" y="545.2422"/><text fill="#000000" font-family="sans-serif" font-size="11" lengthAdjust="spacingAndGlyphs" textLength="58" x="207" y="551.4526">uts(): long</text><ellipse cx="198" cy="561.0469" fill="#84BE84" rx="3" ry="3" style="stroke: #038048; stroke-width: 1.0;"/><text fill="#000000" font-family="sans-serif" font-size="11" lengthAdjust="spacingAndGlyphs" textLength="112" x="207" y="564.2573">diff(DateTime): long</text></a><!--MD5=[0648e104af8b1dd6bf0f75ea8ce2fb00]
class CarSharing.provided.TripStatus--><a href="TripStatus.html" target="_top" title="TripStatus.html" xlink:actuate="onRequest" xlink:href="TripStatus.html" xlink:show="new" xlink:title="TripStatus.html" xlink:type="simple"><rect codeLine="29" fill="#FEFECE" filter="url(#faelnpqtepbwt)" height="86.4141" id="CarSharing.provided.TripStatus" style="stroke: #A80036; stroke-width: 1.5;" width="96" x="828" y="433.5"/><ellipse cx="843" cy="449.5" fill="#EB937F" rx="11" ry="11" style="stroke: #A80036; stroke-width: 1.0;"/><path d="M847.1094,455.5 L839.3906,455.5 L839.3906,443.1094 L847.1094,443.1094 L847.1094,445.2656 L841.8438,445.2656 L841.8438,447.9375 L846.6094,447.9375 L846.6094,450.0938 L841.8438,450.0938 L841.8438,453.3438 L847.1094,453.3438 L847.1094,455.5 Z "/><text fill="#000000" font-family="sans-serif" font-size="12" lengthAdjust="spacingAndGlyphs" textLength="64" x="857" y="453.6543">TripStatus</text><line style="stroke: #A80036; stroke-width: 1.5;" x1="829" x2="923" y1="465.5" y2="465.5"/><ellipse cx="839" cy="476.5" fill="none" rx="3" ry="3" style="stroke: #038048; stroke-width: 1.0;"/><text fill="#000000" font-family="sans-serif" font-size="11" lengthAdjust="spacingAndGlyphs" text-decoration="underline" textLength="51" x="848" y="479.7104">CREATED</text><ellipse cx="839" cy="489.3047" fill="none" rx="3" ry="3" style="stroke: #038048; stroke-width: 1.0;"/><text fill="#000000" font-family="sans-serif" font-size="11" lengthAdjust="spacingAndGlyphs" text-decoration="underline" textLength="51" x="848" y="492.5151">STARTED</text><ellipse cx="839" cy="502.1094" fill="none" rx="3" ry="3" style="stroke: #038048; stroke-width: 1.0;"/><text fill="#000000" font-family="sans-serif" font-size="11" lengthAdjust="spacingAndGlyphs" text-decoration="underline" textLength="68" x="848" y="505.3198">COMPLETED</text><line style="stroke: #A80036; stroke-width: 1.5;" x1="829" x2="923" y1="511.9141" y2="511.9141"/></a><!--MD5=[3c662231aa8500e7acba0bca9cd47888]
class CarSharing.provided.DurationComparator--><a href="DurationComparator.html" target="_top" title="DurationComparator.html" xlink:actuate="onRequest" xlink:href="DurationComparator.html" xlink:show="new" xlink:title="DurationComparator.html" xlink:type="simple"><rect codeLine="35" fill="#FEFECE" filter="url(#faelnpqtepbwt)" height="60.8047" id="CarSharing.provided.DurationComparator" style="stroke: #A80036; stroke-width: 1.5;" width="160" x="412" y="446"/><ellipse cx="427" cy="462" fill="#ADD1B2" rx="11" ry="11" style="stroke: #A80036; stroke-width: 1.0;"/><path d="M429.9688,467.6406 Q429.3906,467.9375 428.75,468.0781 Q428.1094,468.2344 427.4063,468.2344 Q424.9063,468.2344 423.5781,466.5938 Q422.2656,464.9375 422.2656,461.8125 Q422.2656,458.6875 423.5781,457.0313 Q424.9063,455.375 427.4063,455.375 Q428.1094,455.375 428.75,455.5313 Q429.4063,455.6875 429.9688,455.9844 L429.9688,458.7031 Q429.3438,458.125 428.75,457.8594 Q428.1563,457.5781 427.5313,457.5781 Q426.1875,457.5781 425.5,458.6563 Q424.8125,459.7188 424.8125,461.8125 Q424.8125,463.9063 425.5,464.9844 Q426.1875,466.0469 427.5313,466.0469 Q428.1563,466.0469 428.75,465.7813 Q429.3438,465.5 429.9688,464.9219 L429.9688,467.6406 Z "/><text fill="#000000" font-family="sans-serif" font-size="12" lengthAdjust="spacingAndGlyphs" textLength="128" x="441" y="466.1543">DurationComparator</text><line style="stroke: #A80036; stroke-width: 1.5;" x1="413" x2="571" y1="478" y2="478"/><line style="stroke: #A80036; stroke-width: 1.5;" x1="413" x2="571" y1="486" y2="486"/><ellipse cx="423" cy="497" fill="#84BE84" rx="3" ry="3" style="stroke: #038048; stroke-width: 1.0;"/><text fill="#000000" font-family="sans-serif" font-size="11" lengthAdjust="spacingAndGlyphs" textLength="132" x="432" y="500.2104">compare(Trip, Trip): int</text></a><!--MD5=[a6f9d838cf31a40675334183e1d33a6e]
class CarSharing.provided.Location--><a href="Location.html" target="_top" title="Location.html" xlink:actuate="onRequest" xlink:href="Location.html" xlink:show="new" xlink:title="Location.html" xlink:type="simple"><rect codeLine="39" fill="#FEFECE" filter="url(#faelnpqtepbwt)" height="124.8281" id="CarSharing.provided.Location" style="stroke: #A80036; stroke-width: 1.5;" width="207" x="959.5" y="414"/><ellipse cx="1032.25" cy="430" fill="#ADD1B2" rx="11" ry="11" style="stroke: #A80036; stroke-width: 1.0;"/><path d="M1035.2188,435.6406 Q1034.6406,435.9375 1034,436.0781 Q1033.3594,436.2344 1032.6563,436.2344 Q1030.1563,436.2344 1028.8281,434.5938 Q1027.5156,432.9375 1027.5156,429.8125 Q1027.5156,426.6875 1028.8281,425.0313 Q1030.1563,423.375 1032.6563,423.375 Q1033.3594,423.375 1034,423.5313 Q1034.6563,423.6875 1035.2188,423.9844 L1035.2188,426.7031 Q1034.5938,426.125 1034,425.8594 Q1033.4063,425.5781 1032.7813,425.5781 Q1031.4375,425.5781 1030.75,426.6563 Q1030.0625,427.7188 1030.0625,429.8125 Q1030.0625,431.9063 1030.75,432.9844 Q1031.4375,434.0469 1032.7813,434.0469 Q1033.4063,434.0469 1034,433.7813 Q1034.5938,433.5 1035.2188,432.9219 L1035.2188,435.6406 Z "/><text fill="#000000" font-family="sans-serif" font-size="12" lengthAdjust="spacingAndGlyphs" textLength="53" x="1052.75" y="434.1543">Location</text><line style="stroke: #A80036; stroke-width: 1.5;" x1="960.5" x2="1165.5" y1="446" y2="446"/><rect fill="none" height="6" style="stroke: #C82930; stroke-width: 1.0;" width="6" x="967.5" y="454"/><text fill="#000000" font-family="sans-serif" font-size="11" lengthAdjust="spacingAndGlyphs" textLength="53" x="979.5" y="460.2104">n: double</text><rect fill="none" height="6" style="stroke: #C82930; stroke-width: 1.0;" width="6" x="967.5" y="466.8047"/><text fill="#000000" font-family="sans-serif" font-size="11" lengthAdjust="spacingAndGlyphs" textLength="53" x="979.5" y="473.0151">e: double</text><rect fill="none" height="6" style="stroke: #C82930; stroke-width: 1.0;" width="6" x="967.5" y="479.6094"/><text fill="#000000" font-family="sans-serif" font-size="11" lengthAdjust="spacingAndGlyphs" textLength="105" x="979.5" y="485.8198">description: String</text><line style="stroke: #A80036; stroke-width: 1.5;" x1="960.5" x2="1165.5" y1="492.4141" y2="492.4141"/><ellipse cx="970.5" cy="503.4141" fill="#84BE84" rx="3" ry="3" style="stroke: #038048; stroke-width: 1.0;"/><text fill="#000000" font-family="sans-serif" font-size="11" lengthAdjust="spacingAndGlyphs" textLength="139" x="979.5" y="506.6245">Location(double, double)</text><ellipse cx="970.5" cy="516.2188" fill="#84BE84" rx="3" ry="3" style="stroke: #038048; stroke-width: 1.0;"/><text fill="#000000" font-family="sans-serif" font-size="11" lengthAdjust="spacingAndGlyphs" textLength="181" x="979.5" y="519.4292">Location(double, double, String)</text><ellipse cx="970.5" cy="529.0234" fill="#84BE84" rx="3" ry="3" style="stroke: #038048; stroke-width: 1.0;"/><text fill="#000000" font-family="sans-serif" font-size="11" lengthAdjust="spacingAndGlyphs" textLength="102" x="979.5" y="532.2339">Location(Location)</text></a><!--MD5=[33f3df4d081dd7b92c1d1ebf63857991]
class CarSharing.provided.Customer--><a href="Customer.html" target="_top" title="Customer.html" xlink:actuate="onRequest" xlink:href="Customer.html" xlink:show="new" xlink:title="Customer.html" xlink:type="simple"><rect codeLine="48" fill="#FEFECE" filter="url(#faelnpqtepbwt)" height="86.4141" id="CarSharing.provided.Customer" style="stroke: #A80036; stroke-width: 1.5;" width="146" x="627" y="631"/><ellipse cx="666.3" cy="647" fill="#ADD1B2" rx="11" ry="11" style="stroke: #A80036; stroke-width: 1.0;"/><path d="M669.2688,652.6406 Q668.6906,652.9375 668.05,653.0781 Q667.4094,653.2344 666.7063,653.2344 Q664.2063,653.2344 662.8781,651.5938 Q661.5656,649.9375 661.5656,646.8125 Q661.5656,643.6875 662.8781,642.0313 Q664.2063,640.375 666.7063,640.375 Q667.4094,640.375 668.05,640.5313 Q668.7063,640.6875 669.2688,640.9844 L669.2688,643.7031 Q668.6438,643.125 668.05,642.8594 Q667.4563,642.5781 666.8313,642.5781 Q665.4875,642.5781 664.8,643.6563 Q664.1125,644.7188 664.1125,646.8125 Q664.1125,648.9063 664.8,649.9844 Q665.4875,651.0469 666.8313,651.0469 Q667.4563,651.0469 668.05,650.7813 Q668.6438,650.5 669.2688,649.9219 L669.2688,652.6406 Z "/><text fill="#000000" font-family="sans-serif" font-size="12" lengthAdjust="spacingAndGlyphs" textLength="60" x="685.7" y="651.1543">Customer</text><line style="stroke: #A80036; stroke-width: 1.5;" x1="628" x2="772" y1="663" y2="663"/><rect fill="none" height="6" style="stroke: #C82930; stroke-width: 1.0;" width="6" x="635" y="671"/><text fill="#000000" font-family="sans-serif" font-size="11" lengthAdjust="spacingAndGlyphs" textLength="74" x="647" y="677.2104">name: String</text><line style="stroke: #A80036; stroke-width: 1.5;" x1="628" x2="772" y1="683.8047" y2="683.8047"/><ellipse cx="638" cy="694.8047" fill="#84BE84" rx="3" ry="3" style="stroke: #038048; stroke-width: 1.0;"/><text fill="#000000" font-family="sans-serif" font-size="11" lengthAdjust="spacingAndGlyphs" textLength="98" x="647" y="698.0151">Customer(String)</text><ellipse cx="638" cy="707.6094" fill="#84BE84" rx="3" ry="3" style="stroke: #038048; stroke-width: 1.0;"/><text fill="#000000" font-family="sans-serif" font-size="11" lengthAdjust="spacingAndGlyphs" textLength="120" x="647" y="710.8198">Customer(Customer)</text></a><!--MD5=[b18d373ac55e83749332e48a3e085f57]
class CarSharing.provided.Formatter--><a href="Formatter.html" target="_top" title="Formatter.html" xlink:actuate="onRequest" xlink:href="Formatter.html" xlink:show="new" xlink:title="Formatter.html" xlink:type="simple"><rect codeLine="54" fill="#FEFECE" filter="url(#faelnpqtepbwt)" height="60.8047" id="CarSharing.provided.Formatter" style="stroke: #A80036; stroke-width: 1.5;" width="120" x="32" y="446"/><ellipse cx="53.75" cy="462" fill="#A9DCDF" rx="11" ry="11" style="stroke: #A80036; stroke-width: 1.0;"/><path d="M53.8594,457.3438 L52.7031,462.4219 L55.0313,462.4219 L53.8594,457.3438 Z M52.375,455.1094 L55.3594,455.1094 L58.7188,467.5 L56.2656,467.5 L55.5,464.4375 L52.2188,464.4375 L51.4688,467.5 L49.0313,467.5 L52.375,455.1094 Z "/><text fill="#000000" font-family="sans-serif" font-size="12" font-style="italic" lengthAdjust="spacingAndGlyphs" textLength="62" x="69.25" y="466.1543">Formatter</text><rect fill="#FFFFFF" height="15.9688" style="stroke: #000000; stroke-width: 1.0; stroke-dasharray: 2.0,2.0;" width="9" x="146" y="443"/><text fill="#000000" font-family="sans-serif" font-size="12" font-style="italic" lengthAdjust="spacingAndGlyphs" textLength="7" x="147" y="455.1387">T</text><line style="stroke: #A80036; stroke-width: 1.5;" x1="33" x2="151" y1="478" y2="478"/><line style="stroke: #A80036; stroke-width: 1.5;" x1="33" x2="151" y1="486" y2="486"/><ellipse cx="43" cy="497" fill="#84BE84" rx="3" ry="3" style="stroke: #038048; stroke-width: 1.0;"/><text fill="#000000" font-family="sans-serif" font-size="11" font-style="italic" lengthAdjust="spacingAndGlyphs" textLength="94" x="52" y="500.2104">format(T): String</text></a><!--MD5=[23a90bc99b7e9f7628715897abbd0174]
class CarSharing.provided.LongFormat--><a href="LongFormat.html" target="_top" title="LongFormat.html" xlink:actuate="onRequest" xlink:href="LongFormat.html" xlink:show="new" xlink:title="LongFormat.html" xlink:type="simple"><rect codeLine="58" fill="#FEFECE" filter="url(#faelnpqtepbwt)" height="60.8047" id="CarSharing.provided.LongFormat" style="stroke: #A80036; stroke-width: 1.5;" width="136" x="32" y="643.5"/><ellipse cx="60.5" cy="659.5" fill="#ADD1B2" rx="11" ry="11" style="stroke: #A80036; stroke-width: 1.0;"/><path d="M63.4688,665.1406 Q62.8906,665.4375 62.25,665.5781 Q61.6094,665.7344 60.9063,665.7344 Q58.4063,665.7344 57.0781,664.0938 Q55.7656,662.4375 55.7656,659.3125 Q55.7656,656.1875 57.0781,654.5313 Q58.4063,652.875 60.9063,652.875 Q61.6094,652.875 62.25,653.0313 Q62.9063,653.1875 63.4688,653.4844 L63.4688,656.2031 Q62.8438,655.625 62.25,655.3594 Q61.6563,655.0781 61.0313,655.0781 Q59.6875,655.0781 59,656.1563 Q58.3125,657.2188 58.3125,659.3125 Q58.3125,661.4063 59,662.4844 Q59.6875,663.5469 61.0313,663.5469 Q61.6563,663.5469 62.25,663.2813 Q62.8438,663 63.4688,662.4219 L63.4688,665.1406 Z "/><text fill="#000000" font-family="sans-serif" font-size="12" lengthAdjust="spacingAndGlyphs" textLength="74" x="77.5" y="663.6543">LongFormat</text><line style="stroke: #A80036; stroke-width: 1.5;" x1="33" x2="167" y1="675.5" y2="675.5"/><line style="stroke: #A80036; stroke-width: 1.5;" x1="33" x2="167" y1="683.5" y2="683.5"/><ellipse cx="43" cy="694.5" fill="#84BE84" rx="3" ry="3" style="stroke: #038048; stroke-width: 1.0;"/><text fill="#000000" font-family="sans-serif" font-size="11" lengthAdjust="spacingAndGlyphs" textLength="110" x="52" y="697.7104">format(Trip): String</text></a><!--MD5=[e1e8d5e553819b81950e5f1bda6cea5f]
class CarSharing.provided.Matcher--><a href="Matcher.html" target="_top" title="Matcher.html" xlink:actuate="onRequest" xlink:href="Matcher.html" xlink:show="new" xlink:title="Matcher.html" xlink:type="simple"><rect codeLine="62" fill="#FEFECE" filter="url(#faelnpqtepbwt)" height="86.4141" id="CarSharing.provided.Matcher" style="stroke: #A80036; stroke-width: 1.5;" width="142" x="808" y="631"/><ellipse cx="844.6" cy="647" fill="#A9DCDF" rx="11" ry="11" style="stroke: #A80036; stroke-width: 1.0;"/><path d="M844.7094,642.3438 L843.5531,647.4219 L845.8813,647.4219 L844.7094,642.3438 Z M843.225,640.1094 L846.2094,640.1094 L849.5688,652.5 L847.1156,652.5 L846.35,649.4375 L843.0688,649.4375 L842.3188,652.5 L839.8813,652.5 L843.225,640.1094 Z "/><text fill="#000000" font-family="sans-serif" font-size="12" font-style="italic" lengthAdjust="spacingAndGlyphs" textLength="51" x="863.4" y="651.1543">Matcher</text><rect fill="#FFFFFF" height="15.9688" style="stroke: #000000; stroke-width: 1.0; stroke-dasharray: 2.0,2.0;" width="9" x="944" y="628"/><text fill="#000000" font-family="sans-serif" font-size="12" font-style="italic" lengthAdjust="spacingAndGlyphs" textLength="7" x="945" y="640.1387">T</text><line style="stroke: #A80036; stroke-width: 1.5;" x1="809" x2="949" y1="663" y2="663"/><line style="stroke: #A80036; stroke-width: 1.5;" x1="809" x2="949" y1="671" y2="671"/><ellipse cx="819" cy="682" fill="#84BE84" rx="3" ry="3" style="stroke: #038048; stroke-width: 1.0;"/><text fill="#000000" font-family="sans-serif" font-size="11" lengthAdjust="spacingAndGlyphs" textLength="87" x="828" y="685.2104">Matcher(String)</text><ellipse cx="819" cy="694.8047" fill="#84BE84" rx="3" ry="3" style="stroke: #038048; stroke-width: 1.0;"/><text fill="#000000" font-family="sans-serif" font-size="11" lengthAdjust="spacingAndGlyphs" textLength="53" x="828" y="698.0151">Matcher()</text><ellipse cx="819" cy="707.6094" fill="#84BE84" rx="3" ry="3" style="stroke: #038048; stroke-width: 1.0;"/><text fill="#000000" font-family="sans-serif" font-size="11" font-style="italic" lengthAdjust="spacingAndGlyphs" textLength="116" x="828" y="710.8198">matches(T): boolean</text></a><!--MD5=[008d82c49f85b4d489e041917c99c847]
class java.lang.Comparable--><rect codeLine="74" fill="#FEFECE" filter="url(#faelnpqtepbwt)" height="60.8047" id="java.lang.Comparable" style="stroke: #A80036; stroke-width: 1.5;" width="127" x="123.5" y="143.5"/><ellipse cx="142.55" cy="159.5" fill="#B4A7E5" rx="11" ry="11" style="stroke: #A80036; stroke-width: 1.0;"/><path d="M138.4719,155.2656 L138.4719,153.1094 L145.8625,153.1094 L145.8625,155.2656 L143.3938,155.2656 L143.3938,163.3438 L145.8625,163.3438 L145.8625,165.5 L138.4719,165.5 L138.4719,163.3438 L140.9406,163.3438 L140.9406,155.2656 L138.4719,155.2656 Z "/><text fill="#000000" font-family="sans-serif" font-size="12" font-style="italic" lengthAdjust="spacingAndGlyphs" textLength="75" x="157.45" y="163.6543">Comparable</text><rect fill="#FFFFFF" height="15.9688" style="stroke: #000000; stroke-width: 1.0; stroke-dasharray: 2.0,2.0;" width="9" x="244.5" y="140.5"/><text fill="#000000" font-family="sans-serif" font-size="12" font-style="italic" lengthAdjust="spacingAndGlyphs" textLength="7" x="245.5" y="152.6387">T</text><line style="stroke: #A80036; stroke-width: 1.5;" x1="124.5" x2="249.5" y1="175.5" y2="175.5"/><line style="stroke: #A80036; stroke-width: 1.5;" x1="124.5" x2="249.5" y1="183.5" y2="183.5"/><ellipse cx="134.5" cy="194.5" fill="#84BE84" rx="3" ry="3" style="stroke: #038048; stroke-width: 1.0;"/><text fill="#000000" font-family="sans-serif" font-size="11" font-style="italic" lengthAdjust="spacingAndGlyphs" textLength="101" x="143.5" y="197.7104">compareTo(T): int</text><!--MD5=[ab8fa349a1e2e86ca8104897b03d4899]
class java.util.Comparator--><rect codeLine="80" fill="#FEFECE" filter="url(#faelnpqtepbwt)" height="265.6797" id="java.util.Comparator" style="stroke: #A80036; stroke-width: 1.5;" width="565" x="307.5" y="41"/><ellipse cx="543.25" cy="57" fill="#B4A7E5" rx="11" ry="11" style="stroke: #A80036; stroke-width: 1.0;"/><path d="M539.1719,52.7656 L539.1719,50.6094 L546.5625,50.6094 L546.5625,52.7656 L544.0938,52.7656 L544.0938,60.8438 L546.5625,60.8438 L546.5625,63 L539.1719,63 L539.1719,60.8438 L541.6406,60.8438 L541.6406,52.7656 L539.1719,52.7656 Z "/><text fill="#000000" font-family="sans-serif" font-size="12" font-style="italic" lengthAdjust="spacingAndGlyphs" textLength="74" x="563.75" y="61.1543">Comparator</text><rect fill="#FFFFFF" height="15.9688" style="stroke: #000000; stroke-width: 1.0; stroke-dasharray: 2.0,2.0;" width="9" x="866.5" y="38"/><text fill="#000000" font-family="sans-serif" font-size="12" font-style="italic" lengthAdjust="spacingAndGlyphs" textLength="7" x="867.5" y="50.1387">T</text><line style="stroke: #A80036; stroke-width: 1.5;" x1="308.5" x2="871.5" y1="73" y2="73"/><line style="stroke: #A80036; stroke-width: 1.5;" x1="308.5" x2="871.5" y1="81" y2="81"/><ellipse cx="318.5" cy="92" fill="#84BE84" rx="3" ry="3" style="stroke: #038048; stroke-width: 1.0;"/><text fill="#000000" font-family="sans-serif" font-size="11" font-style="italic" lengthAdjust="spacingAndGlyphs" textLength="102" x="327.5" y="95.2104">compare(T, T): int</text><ellipse cx="318.5" cy="104.8047" fill="#84BE84" rx="3" ry="3" style="stroke: #038048; stroke-width: 1.0;"/><text fill="#000000" font-family="sans-serif" font-size="11" lengthAdjust="spacingAndGlyphs" textLength="160" x="327.5" y="108.0151">reversed(): Comparator&lt;T&gt;</text><ellipse cx="318.5" cy="117.6094" fill="#84BE84" rx="3" ry="3" style="stroke: #038048; stroke-width: 1.0;"/><text fill="#000000" font-family="sans-serif" font-size="11" lengthAdjust="spacingAndGlyphs" textLength="336" x="327.5" y="120.8198">thenComparing(Comparator&lt;? super T&gt;): Comparator&lt;T&gt;</text><ellipse cx="318.5" cy="130.4141" fill="#84BE84" rx="3" ry="3" style="stroke: #038048; stroke-width: 1.0;"/><text fill="#000000" font-family="sans-serif" font-size="11" lengthAdjust="spacingAndGlyphs" textLength="539" x="327.5" y="133.6245">thenComparing(Function&lt;? super T, ? extends U&gt;, Comparator&lt;? super U&gt;): Comparator&lt;T&gt;</text><ellipse cx="318.5" cy="143.2188" fill="#84BE84" rx="3" ry="3" style="stroke: #038048; stroke-width: 1.0;"/><text fill="#000000" font-family="sans-serif" font-size="11" lengthAdjust="spacingAndGlyphs" textLength="524" x="327.5" y="146.4292">thenComparing(Function&lt;? super T, ? extends Comparable&lt;? super U&gt;&gt;): Comparator&lt;T&gt;</text><ellipse cx="318.5" cy="156.0234" fill="#84BE84" rx="3" ry="3" style="stroke: #038048; stroke-width: 1.0;"/><text fill="#000000" font-family="sans-serif" font-size="11" lengthAdjust="spacingAndGlyphs" textLength="357" x="327.5" y="159.2339">thenComparingInt(ToIntFunction&lt;? super T&gt;): Comparator&lt;T&gt;</text><ellipse cx="318.5" cy="168.8281" fill="#84BE84" rx="3" ry="3" style="stroke: #038048; stroke-width: 1.0;"/><text fill="#000000" font-family="sans-serif" font-size="11" lengthAdjust="spacingAndGlyphs" textLength="383" x="327.5" y="172.0386">thenComparingLong(ToLongFunction&lt;? super T&gt;): Comparator&lt;T&gt;</text><ellipse cx="318.5" cy="181.6328" fill="#84BE84" rx="3" ry="3" style="stroke: #038048; stroke-width: 1.0;"/><text fill="#000000" font-family="sans-serif" font-size="11" lengthAdjust="spacingAndGlyphs" textLength="407" x="327.5" y="184.8433">thenComparingDouble(ToDoubleFunction&lt;? super T&gt;): Comparator&lt;T&gt;</text><ellipse cx="318.5" cy="194.4375" fill="#84BE84" rx="3" ry="3" style="stroke: #038048; stroke-width: 1.0;"/><text fill="#000000" font-family="sans-serif" font-size="11" lengthAdjust="spacingAndGlyphs" text-decoration="underline" textLength="380" x="327.5" y="197.6479">reverseOrder(): Comparator&lt;T extends Comparable&lt;? super T&gt;&gt;</text><ellipse cx="318.5" cy="207.2422" fill="#84BE84" rx="3" ry="3" style="stroke: #038048; stroke-width: 1.0;"/><text fill="#000000" font-family="sans-serif" font-size="11" lengthAdjust="spacingAndGlyphs" text-decoration="underline" textLength="376" x="327.5" y="210.4526">naturalOrder(): Comparator&lt;T extends Comparable&lt;? super T&gt;&gt;</text><ellipse cx="318.5" cy="220.0469" fill="#84BE84" rx="3" ry="3" style="stroke: #038048; stroke-width: 1.0;"/><text fill="#000000" font-family="sans-serif" font-size="11" lengthAdjust="spacingAndGlyphs" text-decoration="underline" textLength="301" x="327.5" y="223.2573">nullsFirst(Comparator&lt;? super T&gt;): Comparator&lt;T&gt;</text><ellipse cx="318.5" cy="232.8516" fill="#84BE84" rx="3" ry="3" style="stroke: #038048; stroke-width: 1.0;"/><text fill="#000000" font-family="sans-serif" font-size="11" lengthAdjust="spacingAndGlyphs" text-decoration="underline" textLength="300" x="327.5" y="236.062">nullsLast(Comparator&lt;? super T&gt;): Comparator&lt;T&gt;</text><ellipse cx="318.5" cy="245.6563" fill="#84BE84" rx="3" ry="3" style="stroke: #038048; stroke-width: 1.0;"/><text fill="#000000" font-family="sans-serif" font-size="11" lengthAdjust="spacingAndGlyphs" text-decoration="underline" textLength="512" x="327.5" y="248.8667">comparing(Function&lt;? super T, ? extends U&gt;, Comparator&lt;? super U&gt;): Comparator&lt;T&gt;</text><ellipse cx="318.5" cy="258.4609" fill="#84BE84" rx="3" ry="3" style="stroke: #038048; stroke-width: 1.0;"/><text fill="#000000" font-family="sans-serif" font-size="11" lengthAdjust="spacingAndGlyphs" text-decoration="underline" textLength="497" x="327.5" y="261.6714">comparing(Function&lt;? super T, ? extends Comparable&lt;? super U&gt;&gt;): Comparator&lt;T&gt;</text><ellipse cx="318.5" cy="271.2656" fill="#84BE84" rx="3" ry="3" style="stroke: #038048; stroke-width: 1.0;"/><text fill="#000000" font-family="sans-serif" font-size="11" lengthAdjust="spacingAndGlyphs" text-decoration="underline" textLength="330" x="327.5" y="274.4761">comparingInt(ToIntFunction&lt;? super T&gt;): Comparator&lt;T&gt;</text><ellipse cx="318.5" cy="284.0703" fill="#84BE84" rx="3" ry="3" style="stroke: #038048; stroke-width: 1.0;"/><text fill="#000000" font-family="sans-serif" font-size="11" lengthAdjust="spacingAndGlyphs" text-decoration="underline" textLength="356" x="327.5" y="287.2808">comparingLong(ToLongFunction&lt;? super T&gt;): Comparator&lt;T&gt;</text><ellipse cx="318.5" cy="296.875" fill="#84BE84" rx="3" ry="3" style="stroke: #038048; stroke-width: 1.0;"/><text fill="#000000" font-family="sans-serif" font-size="11" lengthAdjust="spacingAndGlyphs" text-decoration="underline" textLength="380" x="327.5" y="300.0854">comparingDouble(ToDoubleFunction&lt;? super T&gt;): Comparator&lt;T&gt;</text><!--MD5=[903455629941aae1d576ba49c42ea5e1]
reverse link java.lang.Comparable to CarSharing.provided.DateTime--><path codeLine="68" d="M202.43,223.8 C215.91,266.45 235.87,329.59 252.43,381.95 " fill="none" id="java.lang.Comparable-backto-CarSharing.provided.DateTime" style="stroke: #A80036; stroke-width: 1.0; stroke-dasharray: 7.0,7.0;"/><polygon fill="none" points="195.72,225.82,196.37,204.64,209.07,221.6,195.72,225.82" style="stroke: #A80036; stroke-width: 1.0;"/><!--MD5=[948b3d5bb992c2072fb311de6e90f272]
reverse link java.util.Comparator to CarSharing.provided.DurationComparator--><path codeLine="69" d="M540.63,326.39 C525.76,371.97 510.94,417.42 501.64,445.94 " fill="none" id="java.util.Comparator-backto-CarSharing.provided.DurationComparator" style="stroke: #A80036; stroke-width: 1.0; stroke-dasharray: 7.0,7.0;"/><polygon fill="none" points="534.02,324.08,546.87,307.24,547.33,328.43,534.02,324.08" style="stroke: #A80036; stroke-width: 1.0;"/><!--MD5=[1e68d53f40026c354f2455cb132732e9]
reverse link CarSharing.provided.Formatter to CarSharing.provided.LongFormat--><path codeLine="70" d="M94.04,527.43 C95.54,564.08 97.53,612.63 98.79,643.35 " fill="none" id="CarSharing.provided.Formatter-backto-CarSharing.provided.LongFormat" style="stroke: #A80036; stroke-width: 1.0;"/><polygon fill="none" points="87.04,527.46,93.22,507.19,101.03,526.89,87.04,527.46" style="stroke: #A80036; stroke-width: 1.0;"/><!--MD5=[24f15a21bc93d1982bbe7053a1e7b940]
link CarSharing.provided.Car to CarSharing.provided.TripStatus--><!--MD5=[9cb194e2e5570b6c4fd0085af33bd629]
link CarSharing.provided.TripStatus to CarSharing.provided.Location--><!--MD5=[6b9cbc598cbe3d510297ea3653fcf9d5]
link CarSharing.provided.Car to CarSharing.provided.Customer--><!--MD5=[a9fa3cfe7423825fafd9a722c9104ea6]
link CarSharing.provided.Customer to CarSharing.provided.Matcher--><text fill="#888888" font-family="sans-serif" font-size="10" lengthAdjust="spacingAndGlyphs" textLength="192" x="497.5" y="748.2822">UMLDoclet 2.0.12, PlantUML 1.2020.16</text><!--MD5=[550175c39e467a80565d4ce18f9b2d68]
@startuml
    namespace CarSharing.provided {

        class Car [[Car.html]] {
            -make: String
            -model: String
            -registration: String
            +Car()
            +Car(Car)
            +Car(String, String, String)
            +setMake(String): void
            +setModel(String): void
            +setRegistration(String): void
        }

        class DateTime [[DateTime.html]] {
            ~day: int
            ~month: int
            ~year: int
            ~hr: int
            ~min: int
            +DateTime(int, int, int, int, int)
            +DateTime(DateTime)
            +compareTo(DateTime): int
            +ts(): long
            -uts(): long
            +diff(DateTime): long
        }

        enum TripStatus [[TripStatus.html]] {
            {static} +CREATED
            {static} +STARTED
            {static} +COMPLETED
        }

        class DurationComparator [[DurationComparator.html]] {
            +compare(Trip, Trip): int
        }

        class Location [[Location.html]] {
            -n: double
            -e: double
            -description: String
            +Location(double, double)
            +Location(double, double, String)
            +Location(Location)
        }

        class Customer [[Customer.html]] {
            -name: String
            +Customer(String)
            +Customer(Customer)
        }

        abstract class Formatter<T> [[Formatter.html]] {
            {abstract} +format(T): String
        }

        class LongFormat [[LongFormat.html]] {
            +format(Trip): String
        }

        abstract class Matcher<T> [[Matcher.html]] {
            +Matcher(String)
            +Matcher()
            {abstract} +matches(T): boolean
        }

        java.lang.Comparable <|.. DateTime
        java.util.Comparator <|.. DurationComparator
        Formatter <|- - LongFormat
    }

    namespace java.lang {
        interface Comparable<T> {
            {abstract} +compareTo(T): int
        }
    }

    namespace java.util {
        interface Comparator<T> {
            {abstract} +compare(T, T): int
            +reversed(): Comparator<T>
            +thenComparing(Comparator<? super T>): Comparator<T>
            +thenComparing(Function<? super T, ? extends U>, Comparator<? super U>): Comparator<T>
            +thenComparing(Function<? super T, ? extends Comparable<? super U>>): Comparator<T>
            +thenComparingInt(ToIntFunction<? super T>): Comparator<T>
            +thenComparingLong(ToLongFunction<? super T>): Comparator<T>
            +thenComparingDouble(ToDoubleFunction<? super T>): Comparator<T>
            {static} +reverseOrder(): Comparator<T extends Comparable<? super T>>
            {static} +naturalOrder(): Comparator<T extends Comparable<? super T>>
            {static} +nullsFirst(Comparator<? super T>): Comparator<T>
            {static} +nullsLast(Comparator<? super T>): Comparator<T>
            {static} +comparing(Function<? super T, ? extends U>, Comparator<? super U>): Comparator<T>
            {static} +comparing(Function<? super T, ? extends Comparable<? super U>>): Comparator<T>
            {static} +comparingInt(ToIntFunction<? super T>): Comparator<T>
            {static} +comparingLong(ToLongFunction<? super T>): Comparator<T>
            {static} +comparingDouble(ToDoubleFunction<? super T>): Comparator<T>
        }
    }

    center footer UMLDoclet 2.0.12, PlantUML 1.2020.16
@enduml

PlantUML version 1.2020.16(Sun Aug 23 22:20:43 CEST 2020)
(APACHE source distribution)
Java Runtime: OpenJDK Runtime Environment
JVM: OpenJDK 64-Bit Server VM
Default Encoding: ANSI_X3.4-1968
Language: en
Country: US
--></g></svg>