<?xml version="1.0" encoding="UTF-8" standalone="no"?><svg xmlns="http://www.w3.org/2000/svg" xmlns:xlink="http://www.w3.org/1999/xlink" contentScriptType="application/ecmascript" contentStyleType="text/css" height="223px" preserveAspectRatio="none" style="width:204px;height:223px;" version="1.1" viewBox="0 0 204 223" width="204px" zoomAndPan="magnify"><defs><filter height="300%" id="fprjjlxjnk51y" width="300%" x="-1" y="-1"><feGaussianBlur result="blurOut" stdDeviation="2.0"/><feColorMatrix in="blurOut" result="blurOut2" type="matrix" values="0 0 0 0 0 0 0 0 0 0 0 0 0 0 0 0 0 0 .4 0"/><feOffset dx="4.0" dy="4.0" in="blurOut2" result="blurOut3"/><feBlend in="SourceGraphic" in2="blurOut3" mode="normal"/></filter></defs><g><!--MD5=[6bdd003e20c1c2a36bf7cbb7b5282f64]
class CarSharing.util.AmountCopmarator--><a href="AmountCopmarator.html" target="_top" title="AmountCopmarator.html" xlink:actuate="onRequest" xlink:href="AmountCopmarator.html" xlink:show="new" xlink:title="AmountCopmarator.html" xlink:type="simple"><rect codeLine="5" fill="#FEFECE" filter="url(#fprjjlxjnk51y)" height="58.7422" id="CarSharing.util.AmountCopmarator" style="stroke: #A80036; stroke-width: 1.5;" width="167" x="15.5" y="129"/><ellipse cx="30.5" cy="147.9688" fill="#ADD1B2" rx="11" ry="11" style="stroke: #A80036; stroke-width: 1.0;"/><path d="M33.4688,153.6094 Q32.8906,153.9063 32.25,154.0469 Q31.6094,154.2031 30.9063,154.2031 Q28.4063,154.2031 27.0781,152.5625 Q25.7656,150.9063 25.7656,147.7813 Q25.7656,144.6563 27.0781,143 Q28.4063,141.3438 30.9063,141.3438 Q31.6094,141.3438 32.25,141.5 Q32.9063,141.6563 33.4688,141.9531 L33.4688,144.6719 Q32.8438,144.0938 32.25,143.8281 Q31.6563,143.5469 31.0313,143.5469 Q29.6875,143.5469 29,144.625 Q28.3125,145.6875 28.3125,147.7813 Q28.3125,149.875 29,150.9531 Q29.6875,152.0156 31.0313,152.0156 Q31.6563,152.0156 32.25,151.75 Q32.8438,151.4688 33.4688,150.8906 L33.4688,153.6094 Z "/><text fill="#000000" font-family="sans-serif" font-size="14" lengthAdjust="spacingAndGlyphs" textLength="135" x="44.5" y="146.9951">AmountCopmarator</text><text fill="#000000" font-family="sans-serif" font-size="10" lengthAdjust="spacingAndGlyphs" textLength="72" x="76" y="159.5791">CarSharing.util</text><line style="stroke: #A80036; stroke-width: 1.5;" x1="16.5" x2="181.5" y1="166.9375" y2="166.9375"/><ellipse cx="26.5" cy="177.9375" fill="#84BE84" rx="3" ry="3" style="stroke: #038048; stroke-width: 1.0;"/><text fill="#000000" font-family="sans-serif" font-size="11" lengthAdjust="spacingAndGlyphs" textLength="132" x="35.5" y="181.1479">compare(Trip, Trip): int</text></a><!--MD5=[ab8fa349a1e2e86ca8104897b03d4899]
class java.util.Comparator--><rect codeLine="9" fill="#FEFECE" filter="url(#fprjjlxjnk51y)" height="58.7422" id="java.util.Comparator" style="stroke: #A80036; stroke-width: 1.5;" width="158" x="20" y="10"/><ellipse cx="43.1" cy="28.9688" fill="#B4A7E5" rx="11" ry="11" style="stroke: #A80036; stroke-width: 1.0;"/><path d="M39.0219,24.7344 L39.0219,22.5781 L46.4125,22.5781 L46.4125,24.7344 L43.9438,24.7344 L43.9438,32.8125 L46.4125,32.8125 L46.4125,34.9688 L39.0219,34.9688 L39.0219,32.8125 L41.4906,32.8125 L41.4906,24.7344 L39.0219,24.7344 Z "/><text fill="#000000" font-family="sans-serif" font-size="14" font-style="italic" lengthAdjust="spacingAndGlyphs" textLength="81" x="58.9" y="27.9951">Comparator</text><text fill="#000000" font-family="sans-serif" font-size="10" font-style="italic" lengthAdjust="spacingAndGlyphs" textLength="40" x="79.4" y="40.5791">java.util</text><rect fill="#FFFFFF" height="15.9688" style="stroke: #000000; stroke-width: 1.0; stroke-dasharray: 2.0,2.0;" width="25" x="156" y="7"/><text fill="#000000" font-family="sans-serif" font-size="12" font-style="italic" lengthAdjust="spacingAndGlyphs" textLength="23" x="157" y="19.1387">Trip</text><line style="stroke: #A80036; stroke-width: 1.5;" x1="21" x2="177" y1="47.9375" y2="47.9375"/><ellipse cx="31" cy="58.9375" fill="#84BE84" rx="3" ry="3" style="stroke: #038048; stroke-width: 1.0;"/><text fill="#000000" font-family="sans-serif" font-size="11" font-style="italic" lengthAdjust="spacingAndGlyphs" textLength="132" x="40" y="62.1479">compare(Trip, Trip): int</text><!--MD5=[4f316e218111fc6e12878abc261a9a3e]
reverse link java.util.Comparator to CarSharing.util.AmountCopmarator--><path codeLine="13" d="M99,89.25 C99,102.7 99,116.86 99,128.77 " fill="none" id="java.util.Comparator-backto-CarSharing.util.AmountCopmarator" style="stroke: #A80036; stroke-width: 1.0; stroke-dasharray: 7.0,7.0;"/><polygon fill="none" points="92,89.12,99,69.12,106,89.12,92,89.12" style="stroke: #A80036; stroke-width: 1.0;"/><text fill="#888888" font-family="sans-serif" font-size="10" lengthAdjust="spacingAndGlyphs" textLength="192" x="0" y="210.0244">UMLDoclet 2.0.12, PlantUML 1.2020.16</text><!--MD5=[f1bb18a145f6e6dccf1815d68e1fa262]
@startuml
    set namespaceSeparator none
    hide empty fields
    hide empty methods

    class "<size:14>AmountCopmarator\n<size:10>CarSharing.util" as CarSharing.util.AmountCopmarator [[AmountCopmarator.html]] {
        +compare(Trip, Trip): int
    }

    interface "<size:14>Comparator\n<size:10>java.util" as java.util.Comparator<Trip> {
        {abstract} +compare(Trip, Trip): int
    }

    java.util.Comparator <|.. CarSharing.util.AmountCopmarator

    center footer UMLDoclet 2.0.12, PlantUML 1.2020.16
@enduml

PlantUML version 1.2020.16(Sun Aug 23 22:20:43 CEST 2020)
(APACHE source distribution)
Java Runtime: OpenJDK Runtime Environment
JVM: OpenJDK 64-Bit Server VM
Default Encoding: ANSI_X3.4-1968
Language: en
Country: US
--></g></svg>