<?xml version="1.0" encoding="UTF-8" standalone="no"?><svg xmlns="http://www.w3.org/2000/svg" xmlns:xlink="http://www.w3.org/1999/xlink" contentScriptType="application/ecmascript" contentStyleType="text/css" height="512px" preserveAspectRatio="none" style="width:1006px;height:512px;" version="1.1" viewBox="0 0 1006 512" width="1006px" zoomAndPan="magnify"><defs><filter height="300%" id="f14exyz4x951ke" width="300%" x="-1" y="-1"><feGaussianBlur result="blurOut" stdDeviation="2.0"/><feColorMatrix in="blurOut" result="blurOut2" type="matrix" values="0 0 0 0 0 0 0 0 0 0 0 0 0 0 0 0 0 0 .4 0"/><feOffset dx="4.0" dy="4.0" in="blurOut2" result="blurOut3"/><feBlend in="SourceGraphic" in2="blurOut3" mode="normal"/></filter></defs><g><!--MD5=[d9bb184601656ace9fe56c5402531113]
cluster CarSharing.util--><polygon fill="#FFFFFF" filter="url(#f14exyz4x951ke)" points="219,347,341,347,348,369.2969,984,369.2969,984,484,219,484,219,347" style="stroke: #000000; stroke-width: 1.5;"/><line style="stroke: #000000; stroke-width: 1.5;" x1="219" x2="348" y1="369.2969" y2="369.2969"/><text fill="#000000" font-family="sans-serif" font-size="14" font-weight="bold" lengthAdjust="spacingAndGlyphs" textLength="116" x="223" y="361.9951">CarSharing.util</text><!--MD5=[7db3c59d38ae5b37b484eb2df9368145]
cluster java.util--><polygon fill="#FFFFFF" filter="url(#f14exyz4x951ke)" points="16,6,82,6,89,28.2969,614,28.2969,614,323,16,323,16,6" style="stroke: #000000; stroke-width: 1.5;"/><line style="stroke: #000000; stroke-width: 1.5;" x1="16" x2="89" y1="28.2969" y2="28.2969"/><text fill="#000000" font-family="sans-serif" font-size="14" font-weight="bold" lengthAdjust="spacingAndGlyphs" textLength="60" x="20" y="20.9951">java.util</text><!--MD5=[6d5f040d5b079ef7e2ae86390ca05f2d]
cluster CarSharing.provided--><polygon fill="#FFFFFF" filter="url(#f14exyz4x951ke)" points="638,108.5,806,108.5,813,130.7969,967,130.7969,967,220.5,638,220.5,638,108.5" style="stroke: #000000; stroke-width: 1.5;"/><line style="stroke: #000000; stroke-width: 1.5;" x1="638" x2="813" y1="130.7969" y2="130.7969"/><text fill="#000000" font-family="sans-serif" font-size="14" font-weight="bold" lengthAdjust="spacingAndGlyphs" textLength="162" x="642" y="123.4951">CarSharing.provided</text><!--MD5=[3a3fed7097f211249b2a36a6e0776afd]
class CarSharing.util.StatusComparator--><a href="StatusComparator.html" target="_top" title="StatusComparator.html" xlink:actuate="onRequest" xlink:href="StatusComparator.html" xlink:show="new" xlink:title="StatusComparator.html" xlink:type="simple"><rect codeLine="3" fill="#FEFECE" filter="url(#f14exyz4x951ke)" height="60.8047" id="CarSharing.util.StatusComparator" style="stroke: #A80036; stroke-width: 1.5;" width="158" x="428" y="394.5"/><ellipse cx="447.95" cy="410.5" fill="#ADD1B2" rx="11" ry="11" style="stroke: #A80036; stroke-width: 1.0;"/><path d="M450.9188,416.1406 Q450.3406,416.4375 449.7,416.5781 Q449.0594,416.7344 448.3563,416.7344 Q445.8563,416.7344 444.5281,415.0938 Q443.2156,413.4375 443.2156,410.3125 Q443.2156,407.1875 444.5281,405.5313 Q445.8563,403.875 448.3563,403.875 Q449.0594,403.875 449.7,404.0313 Q450.3563,404.1875 450.9188,404.4844 L450.9188,407.2031 Q450.2938,406.625 449.7,406.3594 Q449.1063,406.0781 448.4813,406.0781 Q447.1375,406.0781 446.45,407.1563 Q445.7625,408.2188 445.7625,410.3125 Q445.7625,412.4063 446.45,413.4844 Q447.1375,414.5469 448.4813,414.5469 Q449.1063,414.5469 449.7,414.2813 Q450.2938,414 450.9188,413.4219 L450.9188,416.1406 Z "/><text fill="#000000" font-family="sans-serif" font-size="12" lengthAdjust="spacingAndGlyphs" textLength="115" x="463.05" y="414.6543">StatusComparator</text><line style="stroke: #A80036; stroke-width: 1.5;" x1="429" x2="585" y1="426.5" y2="426.5"/><line style="stroke: #A80036; stroke-width: 1.5;" x1="429" x2="585" y1="434.5" y2="434.5"/><ellipse cx="439" cy="445.5" fill="#84BE84" rx="3" ry="3" style="stroke: #038048; stroke-width: 1.0;"/><text fill="#000000" font-family="sans-serif" font-size="11" lengthAdjust="spacingAndGlyphs" textLength="132" x="448" y="448.7104">compare(Trip, Trip): int</text></a><!--MD5=[4cac8ef97aebf10aac5d1ec2ffc5c02e]
class CarSharing.util.StatusMatcher--><a href="StatusMatcher.html" target="_top" title="StatusMatcher.html" xlink:actuate="onRequest" xlink:href="StatusMatcher.html" xlink:show="new" xlink:title="StatusMatcher.html" xlink:type="simple"><rect codeLine="7" fill="#FEFECE" filter="url(#f14exyz4x951ke)" height="86.4141" id="CarSharing.util.StatusMatcher" style="stroke: #A80036; stroke-width: 1.5;" width="175" x="792.5" y="382"/><ellipse cx="830.45" cy="398" fill="#ADD1B2" rx="11" ry="11" style="stroke: #A80036; stroke-width: 1.0;"/><path d="M833.4188,403.6406 Q832.8406,403.9375 832.2,404.0781 Q831.5594,404.2344 830.8563,404.2344 Q828.3563,404.2344 827.0281,402.5938 Q825.7156,400.9375 825.7156,397.8125 Q825.7156,394.6875 827.0281,393.0313 Q828.3563,391.375 830.8563,391.375 Q831.5594,391.375 832.2,391.5313 Q832.8563,391.6875 833.4188,391.9844 L833.4188,394.7031 Q832.7938,394.125 832.2,393.8594 Q831.6063,393.5781 830.9813,393.5781 Q829.6375,393.5781 828.95,394.6563 Q828.2625,395.7188 828.2625,397.8125 Q828.2625,399.9063 828.95,400.9844 Q829.6375,402.0469 830.9813,402.0469 Q831.6063,402.0469 832.2,401.7813 Q832.7938,401.5 833.4188,400.9219 L833.4188,403.6406 Z "/><text fill="#000000" font-family="sans-serif" font-size="12" lengthAdjust="spacingAndGlyphs" textLength="92" x="849.55" y="402.1543">StatusMatcher</text><line style="stroke: #A80036; stroke-width: 1.5;" x1="793.5" x2="966.5" y1="414" y2="414"/><rect fill="none" height="6" style="stroke: #C82930; stroke-width: 1.0;" width="6" x="800.5" y="422"/><text fill="#000000" font-family="sans-serif" font-size="11" lengthAdjust="spacingAndGlyphs" textLength="103" x="812.5" y="428.2104">status: TripStatus</text><line style="stroke: #A80036; stroke-width: 1.5;" x1="793.5" x2="966.5" y1="434.8047" y2="434.8047"/><ellipse cx="803.5" cy="445.8047" fill="#84BE84" rx="3" ry="3" style="stroke: #038048; stroke-width: 1.0;"/><text fill="#000000" font-family="sans-serif" font-size="11" lengthAdjust="spacingAndGlyphs" textLength="149" x="812.5" y="449.0151">StatusMatcher(TripStatus)</text><ellipse cx="803.5" cy="458.6094" fill="#84BE84" rx="3" ry="3" style="stroke: #038048; stroke-width: 1.0;"/><text fill="#000000" font-family="sans-serif" font-size="11" lengthAdjust="spacingAndGlyphs" textLength="132" x="812.5" y="461.8198">matches(Trip): boolean</text></a><!--MD5=[f4ac3c7b7df03f33e936a2d10e8caf53]
class CarSharing.util.QuickFormat--><a href="QuickFormat.html" target="_top" title="QuickFormat.html" xlink:actuate="onRequest" xlink:href="QuickFormat.html" xlink:show="new" xlink:title="QuickFormat.html" xlink:type="simple"><rect codeLine="13" fill="#FEFECE" filter="url(#f14exyz4x951ke)" height="60.8047" id="CarSharing.util.QuickFormat" style="stroke: #A80036; stroke-width: 1.5;" width="136" x="621" y="394.5"/><ellipse cx="647.7" cy="410.5" fill="#ADD1B2" rx="11" ry="11" style="stroke: #A80036; stroke-width: 1.0;"/><path d="M650.6688,416.1406 Q650.0906,416.4375 649.45,416.5781 Q648.8094,416.7344 648.1063,416.7344 Q645.6063,416.7344 644.2781,415.0938 Q642.9656,413.4375 642.9656,410.3125 Q642.9656,407.1875 644.2781,405.5313 Q645.6063,403.875 648.1063,403.875 Q648.8094,403.875 649.45,404.0313 Q650.1063,404.1875 650.6688,404.4844 L650.6688,407.2031 Q650.0438,406.625 649.45,406.3594 Q648.8563,406.0781 648.2313,406.0781 Q646.8875,406.0781 646.2,407.1563 Q645.5125,408.2188 645.5125,410.3125 Q645.5125,412.4063 646.2,413.4844 Q646.8875,414.5469 648.2313,414.5469 Q648.8563,414.5469 649.45,414.2813 Q650.0438,414 650.6688,413.4219 L650.6688,416.1406 Z "/><text fill="#000000" font-family="sans-serif" font-size="12" lengthAdjust="spacingAndGlyphs" textLength="78" x="664.3" y="414.6543">QuickFormat</text><line style="stroke: #A80036; stroke-width: 1.5;" x1="622" x2="756" y1="426.5" y2="426.5"/><line style="stroke: #A80036; stroke-width: 1.5;" x1="622" x2="756" y1="434.5" y2="434.5"/><ellipse cx="632" cy="445.5" fill="#84BE84" rx="3" ry="3" style="stroke: #038048; stroke-width: 1.0;"/><text fill="#000000" font-family="sans-serif" font-size="11" lengthAdjust="spacingAndGlyphs" textLength="110" x="641" y="448.7104">format(Trip): String</text></a><!--MD5=[6bdd003e20c1c2a36bf7cbb7b5282f64]
class CarSharing.util.AmountCopmarator--><a href="AmountCopmarator.html" target="_top" title="AmountCopmarator.html" xlink:actuate="onRequest" xlink:href="AmountCopmarator.html" xlink:show="new" xlink:title="AmountCopmarator.html" xlink:type="simple"><rect codeLine="17" fill="#FEFECE" filter="url(#f14exyz4x951ke)" height="60.8047" id="CarSharing.util.AmountCopmarator" style="stroke: #A80036; stroke-width: 1.5;" width="158" x="235" y="394.5"/><ellipse cx="251.8" cy="410.5" fill="#ADD1B2" rx="11" ry="11" style="stroke: #A80036; stroke-width: 1.0;"/><path d="M254.7688,416.1406 Q254.1906,416.4375 253.55,416.5781 Q252.9094,416.7344 252.2063,416.7344 Q249.7063,416.7344 248.3781,415.0938 Q247.0656,413.4375 247.0656,410.3125 Q247.0656,407.1875 248.3781,405.5313 Q249.7063,403.875 252.2063,403.875 Q252.9094,403.875 253.55,404.0313 Q254.2063,404.1875 254.7688,404.4844 L254.7688,407.2031 Q254.1438,406.625 253.55,406.3594 Q252.9563,406.0781 252.3313,406.0781 Q250.9875,406.0781 250.3,407.1563 Q249.6125,408.2188 249.6125,410.3125 Q249.6125,412.4063 250.3,413.4844 Q250.9875,414.5469 252.3313,414.5469 Q252.9563,414.5469 253.55,414.2813 Q254.1438,414 254.7688,413.4219 L254.7688,416.1406 Z "/><text fill="#000000" font-family="sans-serif" font-size="12" lengthAdjust="spacingAndGlyphs" textLength="122" x="266.2" y="414.6543">AmountCopmarator</text><line style="stroke: #A80036; stroke-width: 1.5;" x1="236" x2="392" y1="426.5" y2="426.5"/><line style="stroke: #A80036; stroke-width: 1.5;" x1="236" x2="392" y1="434.5" y2="434.5"/><ellipse cx="246" cy="445.5" fill="#84BE84" rx="3" ry="3" style="stroke: #038048; stroke-width: 1.0;"/><text fill="#000000" font-family="sans-serif" font-size="11" lengthAdjust="spacingAndGlyphs" textLength="132" x="255" y="448.7104">compare(Trip, Trip): int</text></a><!--MD5=[ab8fa349a1e2e86ca8104897b03d4899]
class java.util.Comparator--><rect codeLine="28" fill="#FEFECE" filter="url(#f14exyz4x951ke)" height="265.6797" id="java.util.Comparator" style="stroke: #A80036; stroke-width: 1.5;" width="565" x="32.5" y="41"/><ellipse cx="268.25" cy="57" fill="#B4A7E5" rx="11" ry="11" style="stroke: #A80036; stroke-width: 1.0;"/><path d="M264.1719,52.7656 L264.1719,50.6094 L271.5625,50.6094 L271.5625,52.7656 L269.0938,52.7656 L269.0938,60.8438 L271.5625,60.8438 L271.5625,63 L264.1719,63 L264.1719,60.8438 L266.6406,60.8438 L266.6406,52.7656 L264.1719,52.7656 Z "/><text fill="#000000" font-family="sans-serif" font-size="12" font-style="italic" lengthAdjust="spacingAndGlyphs" textLength="74" x="288.75" y="61.1543">Comparator</text><rect fill="#FFFFFF" height="15.9688" style="stroke: #000000; stroke-width: 1.0; stroke-dasharray: 2.0,2.0;" width="9" x="591.5" y="38"/><text fill="#000000" font-family="sans-serif" font-size="12" font-style="italic" lengthAdjust="spacingAndGlyphs" textLength="7" x="592.5" y="50.1387">T</text><line style="stroke: #A80036; stroke-width: 1.5;" x1="33.5" x2="596.5" y1="73" y2="73"/><line style="stroke: #A80036; stroke-width: 1.5;" x1="33.5" x2="596.5" y1="81" y2="81"/><ellipse cx="43.5" cy="92" fill="#84BE84" rx="3" ry="3" style="stroke: #038048; stroke-width: 1.0;"/><text fill="#000000" font-family="sans-serif" font-size="11" font-style="italic" lengthAdjust="spacingAndGlyphs" textLength="102" x="52.5" y="95.2104">compare(T, T): int</text><ellipse cx="43.5" cy="104.8047" fill="#84BE84" rx="3" ry="3" style="stroke: #038048; stroke-width: 1.0;"/><text fill="#000000" font-family="sans-serif" font-size="11" lengthAdjust="spacingAndGlyphs" textLength="160" x="52.5" y="108.0151">reversed(): Comparator&lt;T&gt;</text><ellipse cx="43.5" cy="117.6094" fill="#84BE84" rx="3" ry="3" style="stroke: #038048; stroke-width: 1.0;"/><text fill="#000000" font-family="sans-serif" font-size="11" lengthAdjust="spacingAndGlyphs" textLength="336" x="52.5" y="120.8198">thenComparing(Comparator&lt;? super T&gt;): Comparator&lt;T&gt;</text><ellipse cx="43.5" cy="130.4141" fill="#84BE84" rx="3" ry="3" style="stroke: #038048; stroke-width: 1.0;"/><text fill="#000000" font-family="sans-serif" font-size="11" lengthAdjust="spacingAndGlyphs" textLength="539" x="52.5" y="133.6245">thenComparing(Function&lt;? super T, ? extends U&gt;, Comparator&lt;? super U&gt;): Comparator&lt;T&gt;</text><ellipse cx="43.5" cy="143.2188" fill="#84BE84" rx="3" ry="3" style="stroke: #038048; stroke-width: 1.0;"/><text fill="#000000" font-family="sans-serif" font-size="11" lengthAdjust="spacingAndGlyphs" textLength="524" x="52.5" y="146.4292">thenComparing(Function&lt;? super T, ? extends Comparable&lt;? super U&gt;&gt;): Comparator&lt;T&gt;</text><ellipse cx="43.5" cy="156.0234" fill="#84BE84" rx="3" ry="3" style="stroke: #038048; stroke-width: 1.0;"/><text fill="#000000" font-family="sans-serif" font-size="11" lengthAdjust="spacingAndGlyphs" textLength="357" x="52.5" y="159.2339">thenComparingInt(ToIntFunction&lt;? super T&gt;): Comparator&lt;T&gt;</text><ellipse cx="43.5" cy="168.8281" fill="#84BE84" rx="3" ry="3" style="stroke: #038048; stroke-width: 1.0;"/><text fill="#000000" font-family="sans-serif" font-size="11" lengthAdjust="spacingAndGlyphs" textLength="383" x="52.5" y="172.0386">thenComparingLong(ToLongFunction&lt;? super T&gt;): Comparator&lt;T&gt;</text><ellipse cx="43.5" cy="181.6328" fill="#84BE84" rx="3" ry="3" style="stroke: #038048; stroke-width: 1.0;"/><text fill="#000000" font-family="sans-serif" font-size="11" lengthAdjust="spacingAndGlyphs" textLength="407" x="52.5" y="184.8433">thenComparingDouble(ToDoubleFunction&lt;? super T&gt;): Comparator&lt;T&gt;</text><ellipse cx="43.5" cy="194.4375" fill="#84BE84" rx="3" ry="3" style="stroke: #038048; stroke-width: 1.0;"/><text fill="#000000" font-family="sans-serif" font-size="11" lengthAdjust="spacingAndGlyphs" text-decoration="underline" textLength="380" x="52.5" y="197.6479">reverseOrder(): Comparator&lt;T extends Comparable&lt;? super T&gt;&gt;</text><ellipse cx="43.5" cy="207.2422" fill="#84BE84" rx="3" ry="3" style="stroke: #038048; stroke-width: 1.0;"/><text fill="#000000" font-family="sans-serif" font-size="11" lengthAdjust="spacingAndGlyphs" text-decoration="underline" textLength="376" x="52.5" y="210.4526">naturalOrder(): Comparator&lt;T extends Comparable&lt;? super T&gt;&gt;</text><ellipse cx="43.5" cy="220.0469" fill="#84BE84" rx="3" ry="3" style="stroke: #038048; stroke-width: 1.0;"/><text fill="#000000" font-family="sans-serif" font-size="11" lengthAdjust="spacingAndGlyphs" text-decoration="underline" textLength="301" x="52.5" y="223.2573">nullsFirst(Comparator&lt;? super T&gt;): Comparator&lt;T&gt;</text><ellipse cx="43.5" cy="232.8516" fill="#84BE84" rx="3" ry="3" style="stroke: #038048; stroke-width: 1.0;"/><text fill="#000000" font-family="sans-serif" font-size="11" lengthAdjust="spacingAndGlyphs" text-decoration="underline" textLength="300" x="52.5" y="236.062">nullsLast(Comparator&lt;? super T&gt;): Comparator&lt;T&gt;</text><ellipse cx="43.5" cy="245.6563" fill="#84BE84" rx="3" ry="3" style="stroke: #038048; stroke-width: 1.0;"/><text fill="#000000" font-family="sans-serif" font-size="11" lengthAdjust="spacingAndGlyphs" text-decoration="underline" textLength="512" x="52.5" y="248.8667">comparing(Function&lt;? super T, ? extends U&gt;, Comparator&lt;? super U&gt;): Comparator&lt;T&gt;</text><ellipse cx="43.5" cy="258.4609" fill="#84BE84" rx="3" ry="3" style="stroke: #038048; stroke-width: 1.0;"/><text fill="#000000" font-family="sans-serif" font-size="11" lengthAdjust="spacingAndGlyphs" text-decoration="underline" textLength="497" x="52.5" y="261.6714">comparing(Function&lt;? super T, ? extends Comparable&lt;? super U&gt;&gt;): Comparator&lt;T&gt;</text><ellipse cx="43.5" cy="271.2656" fill="#84BE84" rx="3" ry="3" style="stroke: #038048; stroke-width: 1.0;"/><text fill="#000000" font-family="sans-serif" font-size="11" lengthAdjust="spacingAndGlyphs" text-decoration="underline" textLength="330" x="52.5" y="274.4761">comparingInt(ToIntFunction&lt;? super T&gt;): Comparator&lt;T&gt;</text><ellipse cx="43.5" cy="284.0703" fill="#84BE84" rx="3" ry="3" style="stroke: #038048; stroke-width: 1.0;"/><text fill="#000000" font-family="sans-serif" font-size="11" lengthAdjust="spacingAndGlyphs" text-decoration="underline" textLength="356" x="52.5" y="287.2808">comparingLong(ToLongFunction&lt;? super T&gt;): Comparator&lt;T&gt;</text><ellipse cx="43.5" cy="296.875" fill="#84BE84" rx="3" ry="3" style="stroke: #038048; stroke-width: 1.0;"/><text fill="#000000" font-family="sans-serif" font-size="11" lengthAdjust="spacingAndGlyphs" text-decoration="underline" textLength="380" x="52.5" y="300.0854">comparingDouble(ToDoubleFunction&lt;? super T&gt;): Comparator&lt;T&gt;</text><!--MD5=[e1e8d5e553819b81950e5f1bda6cea5f]
class CarSharing.provided.Matcher--><a href="../provided/Matcher.html" target="_top" title="../provided/Matcher.html" xlink:actuate="onRequest" xlink:href="../provided/Matcher.html" xlink:show="new" xlink:title="../provided/Matcher.html" xlink:type="simple"><rect codeLine="50" fill="#FEFECE" filter="url(#f14exyz4x951ke)" height="60.8047" id="CarSharing.provided.Matcher" style="stroke: #A80036; stroke-width: 1.5;" width="142" x="809" y="143.5"/><ellipse cx="845.6" cy="159.5" fill="#A9DCDF" rx="11" ry="11" style="stroke: #A80036; stroke-width: 1.0;"/><path d="M845.7094,154.8438 L844.5531,159.9219 L846.8813,159.9219 L845.7094,154.8438 Z M844.225,152.6094 L847.2094,152.6094 L850.5688,165 L848.1156,165 L847.35,161.9375 L844.0688,161.9375 L843.3188,165 L840.8813,165 L844.225,152.6094 Z "/><text fill="#000000" font-family="sans-serif" font-size="12" font-style="italic" lengthAdjust="spacingAndGlyphs" textLength="51" x="864.4" y="163.6543">Matcher</text><rect fill="#FFFFFF" height="15.9688" style="stroke: #000000; stroke-width: 1.0; stroke-dasharray: 2.0,2.0;" width="9" x="945" y="140.5"/><text fill="#000000" font-family="sans-serif" font-size="12" font-style="italic" lengthAdjust="spacingAndGlyphs" textLength="7" x="946" y="152.6387">T</text><line style="stroke: #A80036; stroke-width: 1.5;" x1="810" x2="950" y1="175.5" y2="175.5"/><line style="stroke: #A80036; stroke-width: 1.5;" x1="810" x2="950" y1="183.5" y2="183.5"/><ellipse cx="820" cy="194.5" fill="#84BE84" rx="3" ry="3" style="stroke: #038048; stroke-width: 1.0;"/><text fill="#000000" font-family="sans-serif" font-size="11" font-style="italic" lengthAdjust="spacingAndGlyphs" textLength="116" x="829" y="197.7104">matches(T): boolean</text></a><!--MD5=[b18d373ac55e83749332e48a3e085f57]
class CarSharing.provided.Formatter--><a href="../provided/Formatter.html" target="_top" title="../provided/Formatter.html" xlink:actuate="onRequest" xlink:href="../provided/Formatter.html" xlink:show="new" xlink:title="../provided/Formatter.html" xlink:type="simple"><rect codeLine="53" fill="#FEFECE" filter="url(#f14exyz4x951ke)" height="60.8047" id="CarSharing.provided.Formatter" style="stroke: #A80036; stroke-width: 1.5;" width="120" x="654" y="143.5"/><ellipse cx="675.75" cy="159.5" fill="#A9DCDF" rx="11" ry="11" style="stroke: #A80036; stroke-width: 1.0;"/><path d="M675.8594,154.8438 L674.7031,159.9219 L677.0313,159.9219 L675.8594,154.8438 Z M674.375,152.6094 L677.3594,152.6094 L680.7188,165 L678.2656,165 L677.5,161.9375 L674.2188,161.9375 L673.4688,165 L671.0313,165 L674.375,152.6094 Z "/><text fill="#000000" font-family="sans-serif" font-size="12" font-style="italic" lengthAdjust="spacingAndGlyphs" textLength="62" x="691.25" y="163.6543">Formatter</text><rect fill="#FFFFFF" height="15.9688" style="stroke: #000000; stroke-width: 1.0; stroke-dasharray: 2.0,2.0;" width="9" x="768" y="140.5"/><text fill="#000000" font-family="sans-serif" font-size="12" font-style="italic" lengthAdjust="spacingAndGlyphs" textLength="7" x="769" y="152.6387">T</text><line style="stroke: #A80036; stroke-width: 1.5;" x1="655" x2="773" y1="175.5" y2="175.5"/><line style="stroke: #A80036; stroke-width: 1.5;" x1="655" x2="773" y1="183.5" y2="183.5"/><ellipse cx="665" cy="194.5" fill="#84BE84" rx="3" ry="3" style="stroke: #038048; stroke-width: 1.0;"/><text fill="#000000" font-family="sans-serif" font-size="11" font-style="italic" lengthAdjust="spacingAndGlyphs" textLength="94" x="674" y="197.7104">format(T): String</text></a><!--MD5=[dd10f041ca54dd4bbc703ec873ad6a21]
reverse link java.util.Comparator to CarSharing.util.StatusComparator--><path codeLine="21" d="M429.28,323.21 C450.13,350.25 469.79,375.74 484.11,394.32 " fill="none" id="java.util.Comparator-backto-CarSharing.util.StatusComparator" style="stroke: #A80036; stroke-width: 1.0; stroke-dasharray: 7.0,7.0;"/><polygon fill="none" points="423.57,327.27,416.9,307.16,434.66,318.72,423.57,327.27" style="stroke: #A80036; stroke-width: 1.0;"/><!--MD5=[98d391995deb30490e2d757d96851465]
reverse link CarSharing.provided.Matcher to CarSharing.util.StatusMatcher--><path codeLine="22" d="M880,224.55 C880,270.49 880,338.12 880,381.61 " fill="none" id="CarSharing.provided.Matcher-backto-CarSharing.util.StatusMatcher" style="stroke: #A80036; stroke-width: 1.0;"/><polygon fill="none" points="873,224.54,880,204.54,887,224.54,873,224.54" style="stroke: #A80036; stroke-width: 1.0;"/><!--MD5=[c9e9397c3fb214fff7075b772322976b]
reverse link CarSharing.provided.Formatter to CarSharing.util.QuickFormat--><path codeLine="23" d="M709.03,224.5 C703.93,275.28 696.17,352.59 691.96,394.5 " fill="none" id="CarSharing.provided.Formatter-backto-CarSharing.util.QuickFormat" style="stroke: #A80036; stroke-width: 1.0;"/><polygon fill="none" points="702.07,223.74,711.03,204.54,716,225.14,702.07,223.74" style="stroke: #A80036; stroke-width: 1.0;"/><!--MD5=[4f316e218111fc6e12878abc261a9a3e]
reverse link java.util.Comparator to CarSharing.util.AmountCopmarator--><path codeLine="24" d="M314.39,327.37 C314.29,352.85 314.19,376.69 314.12,394.32 " fill="none" id="java.util.Comparator-backto-CarSharing.util.AmountCopmarator" style="stroke: #A80036; stroke-width: 1.0; stroke-dasharray: 7.0,7.0;"/><polygon fill="none" points="307.39,327.13,314.47,307.16,321.39,327.18,307.39,327.13" style="stroke: #A80036; stroke-width: 1.0;"/><text fill="#888888" font-family="sans-serif" font-size="10" lengthAdjust="spacingAndGlyphs" textLength="192" x="398" y="499.2822">UMLDoclet 2.0.12, PlantUML 1.2020.16</text><!--MD5=[13da5c46bebf18b1c5fade1261238677]
@startuml
    namespace CarSharing.util {

        class StatusComparator [[StatusComparator.html]] {
            +compare(Trip, Trip): int
        }

        class StatusMatcher [[StatusMatcher.html]] {
            -status: TripStatus
            +StatusMatcher(TripStatus)
            +matches(Trip): boolean
        }

        class QuickFormat [[QuickFormat.html]] {
            +format(Trip): String
        }

        class AmountCopmarator [[AmountCopmarator.html]] {
            +compare(Trip, Trip): int
        }

        java.util.Comparator <|.. StatusComparator
        CarSharing.provided.Matcher <|- - StatusMatcher
        CarSharing.provided.Formatter <|- - QuickFormat
        java.util.Comparator <|.. AmountCopmarator
    }

    namespace java.util {
        interface Comparator<T> {
            {abstract} +compare(T, T): int
            +reversed(): Comparator<T>
            +thenComparing(Comparator<? super T>): Comparator<T>
            +thenComparing(Function<? super T, ? extends U>, Comparator<? super U>): Comparator<T>
            +thenComparing(Function<? super T, ? extends Comparable<? super U>>): Comparator<T>
            +thenComparingInt(ToIntFunction<? super T>): Comparator<T>
            +thenComparingLong(ToLongFunction<? super T>): Comparator<T>
            +thenComparingDouble(ToDoubleFunction<? super T>): Comparator<T>
            {static} +reverseOrder(): Comparator<T extends Comparable<? super T>>
            {static} +naturalOrder(): Comparator<T extends Comparable<? super T>>
            {static} +nullsFirst(Comparator<? super T>): Comparator<T>
            {static} +nullsLast(Comparator<? super T>): Comparator<T>
            {static} +comparing(Function<? super T, ? extends U>, Comparator<? super U>): Comparator<T>
            {static} +comparing(Function<? super T, ? extends Comparable<? super U>>): Comparator<T>
            {static} +comparingInt(ToIntFunction<? super T>): Comparator<T>
            {static} +comparingLong(ToLongFunction<? super T>): Comparator<T>
            {static} +comparingDouble(ToDoubleFunction<? super T>): Comparator<T>
        }
    }

    namespace CarSharing.provided {
        abstract class Matcher<T> [[../provided/Matcher.html]] {
            {abstract} +matches(T): boolean
        }
        abstract class Formatter<T> [[../provided/Formatter.html]] {
            {abstract} +format(T): String
        }
    }

    center footer UMLDoclet 2.0.12, PlantUML 1.2020.16
@enduml

PlantUML version 1.2020.16(Sun Aug 23 22:20:43 CEST 2020)
(APACHE source distribution)
Java Runtime: OpenJDK Runtime Environment
JVM: OpenJDK 64-Bit Server VM
Default Encoding: ANSI_X3.4-1968
Language: en
Country: US
--></g></svg>