<?xml version="1.0" encoding="UTF-8" standalone="no"?><svg xmlns="http://www.w3.org/2000/svg" xmlns:xlink="http://www.w3.org/1999/xlink" contentScriptType="application/ecmascript" contentStyleType="text/css" height="223px" preserveAspectRatio="none" style="width:204px;height:223px;" version="1.1" viewBox="0 0 204 223" width="204px" zoomAndPan="magnify"><defs><filter height="300%" id="fvbzumoqvqk0e" width="300%" x="-1" y="-1"><feGaussianBlur result="blurOut" stdDeviation="2.0"/><feColorMatrix in="blurOut" result="blurOut2" type="matrix" values="0 0 0 0 0 0 0 0 0 0 0 0 0 0 0 0 0 0 .4 0"/><feOffset dx="4.0" dy="4.0" in="blurOut2" result="blurOut3"/><feBlend in="SourceGraphic" in2="blurOut3" mode="normal"/></filter></defs><g><!--MD5=[f4ac3c7b7df03f33e936a2d10e8caf53]
class CarSharing.util.QuickFormat--><a href="QuickFormat.html" target="_top" title="QuickFormat.html" xlink:actuate="onRequest" xlink:href="QuickFormat.html" xlink:show="new" xlink:title="QuickFormat.html" xlink:type="simple"><rect codeLine="5" fill="#FEFECE" filter="url(#fvbzumoqvqk0e)" height="58.7422" id="CarSharing.util.QuickFormat" style="stroke: #A80036; stroke-width: 1.5;" width="136" x="31" y="129"/><ellipse cx="53.65" cy="147.9688" fill="#ADD1B2" rx="11" ry="11" style="stroke: #A80036; stroke-width: 1.0;"/><path d="M56.6188,153.6094 Q56.0406,153.9063 55.4,154.0469 Q54.7594,154.2031 54.0563,154.2031 Q51.5563,154.2031 50.2281,152.5625 Q48.9156,150.9063 48.9156,147.7813 Q48.9156,144.6563 50.2281,143 Q51.5563,141.3438 54.0563,141.3438 Q54.7594,141.3438 55.4,141.5 Q56.0563,141.6563 56.6188,141.9531 L56.6188,144.6719 Q55.9938,144.0938 55.4,143.8281 Q54.8063,143.5469 54.1813,143.5469 Q52.8375,143.5469 52.15,144.625 Q51.4625,145.6875 51.4625,147.7813 Q51.4625,149.875 52.15,150.9531 Q52.8375,152.0156 54.1813,152.0156 Q54.8063,152.0156 55.4,151.75 Q55.9938,151.4688 56.6188,150.8906 L56.6188,153.6094 Z "/><text fill="#000000" font-family="sans-serif" font-size="14" lengthAdjust="spacingAndGlyphs" textLength="87" x="69.35" y="146.9951">QuickFormat</text><text fill="#000000" font-family="sans-serif" font-size="10" lengthAdjust="spacingAndGlyphs" textLength="72" x="76.85" y="159.5791">CarSharing.util</text><line style="stroke: #A80036; stroke-width: 1.5;" x1="32" x2="166" y1="166.9375" y2="166.9375"/><ellipse cx="42" cy="177.9375" fill="#84BE84" rx="3" ry="3" style="stroke: #038048; stroke-width: 1.0;"/><text fill="#000000" font-family="sans-serif" font-size="11" lengthAdjust="spacingAndGlyphs" textLength="110" x="51" y="181.1479">format(Trip): String</text></a><!--MD5=[b18d373ac55e83749332e48a3e085f57]
class CarSharing.provided.Formatter--><a href="../provided/Formatter.html" target="_top" title="../provided/Formatter.html" xlink:actuate="onRequest" xlink:href="../provided/Formatter.html" xlink:show="new" xlink:title="../provided/Formatter.html" xlink:type="simple"><rect codeLine="9" fill="#FEFECE" filter="url(#fvbzumoqvqk0e)" height="58.7422" id="CarSharing.provided.Formatter" style="stroke: #A80036; stroke-width: 1.5;" width="159" x="19.5" y="10"/><ellipse cx="34.5" cy="28.9688" fill="#A9DCDF" rx="11" ry="11" style="stroke: #A80036; stroke-width: 1.0;"/><path d="M34.6094,24.3125 L33.4531,29.3906 L35.7813,29.3906 L34.6094,24.3125 Z M33.125,22.0781 L36.1094,22.0781 L39.4688,34.4688 L37.0156,34.4688 L36.25,31.4063 L32.9688,31.4063 L32.2188,34.4688 L29.7813,34.4688 L33.125,22.0781 Z "/><text fill="#000000" font-family="sans-serif" font-size="14" font-style="italic" lengthAdjust="spacingAndGlyphs" textLength="67" x="65" y="27.9951">Formatter</text><text fill="#000000" font-family="sans-serif" font-size="10" font-style="italic" lengthAdjust="spacingAndGlyphs" textLength="100" x="48.5" y="40.5791">CarSharing.provided</text><rect fill="#FFFFFF" height="15.9688" style="stroke: #000000; stroke-width: 1.0; stroke-dasharray: 2.0,2.0;" width="25" x="156.5" y="7"/><text fill="#000000" font-family="sans-serif" font-size="12" font-style="italic" lengthAdjust="spacingAndGlyphs" textLength="23" x="157.5" y="19.1387">Trip</text><line style="stroke: #A80036; stroke-width: 1.5;" x1="20.5" x2="177.5" y1="47.9375" y2="47.9375"/><ellipse cx="30.5" cy="58.9375" fill="#84BE84" rx="3" ry="3" style="stroke: #038048; stroke-width: 1.0;"/><text fill="#000000" font-family="sans-serif" font-size="11" font-style="italic" lengthAdjust="spacingAndGlyphs" textLength="109" x="39.5" y="62.1479">format(Trip): String</text></a><!--MD5=[c9e9397c3fb214fff7075b772322976b]
reverse link CarSharing.provided.Formatter to CarSharing.util.QuickFormat--><path codeLine="13" d="M99,89.25 C99,102.7 99,116.86 99,128.77 " fill="none" id="CarSharing.provided.Formatter-backto-CarSharing.util.QuickFormat" style="stroke: #A80036; stroke-width: 1.0;"/><polygon fill="none" points="92,89.12,99,69.12,106,89.12,92,89.12" style="stroke: #A80036; stroke-width: 1.0;"/><text fill="#888888" font-family="sans-serif" font-size="10" lengthAdjust="spacingAndGlyphs" textLength="192" x="0" y="210.0244">UMLDoclet 2.0.12, PlantUML 1.2020.16</text><!--MD5=[b078cf8073d1dc60a49e9d13b17981b1]
@startuml
    set namespaceSeparator none
    hide empty fields
    hide empty methods

    class "<size:14>QuickFormat\n<size:10>CarSharing.util" as CarSharing.util.QuickFormat [[QuickFormat.html]] {
        +format(Trip): String
    }

    abstract class "<size:14>Formatter\n<size:10>CarSharing.provided" as CarSharing.provided.Formatter<Trip> [[../provided/Formatter.html]] {
        {abstract} +format(Trip): String
    }

    CarSharing.provided.Formatter <|- - CarSharing.util.QuickFormat

    center footer UMLDoclet 2.0.12, PlantUML 1.2020.16
@enduml

PlantUML version 1.2020.16(Sun Aug 23 22:20:43 CEST 2020)
(APACHE source distribution)
Java Runtime: OpenJDK Runtime Environment
JVM: OpenJDK 64-Bit Server VM
Default Encoding: ANSI_X3.4-1968
Language: en
Country: US
--></g></svg>