<?xml version="1.0" encoding="UTF-8" standalone="no"?><svg xmlns="http://www.w3.org/2000/svg" xmlns:xlink="http://www.w3.org/1999/xlink" contentScriptType="application/ecmascript" contentStyleType="text/css" height="223px" preserveAspectRatio="none" style="width:204px;height:223px;" version="1.1" viewBox="0 0 204 223" width="204px" zoomAndPan="magnify"><defs><filter height="300%" id="f1o25es4a9h8iy" width="300%" x="-1" y="-1"><feGaussianBlur result="blurOut" stdDeviation="2.0"/><feColorMatrix in="blurOut" result="blurOut2" type="matrix" values="0 0 0 0 0 0 0 0 0 0 0 0 0 0 0 0 0 0 .4 0"/><feOffset dx="4.0" dy="4.0" in="blurOut2" result="blurOut3"/><feBlend in="SourceGraphic" in2="blurOut3" mode="normal"/></filter></defs><g><!--MD5=[3a3fed7097f211249b2a36a6e0776afd]
class CarSharing.util.StatusComparator--><a href="StatusComparator.html" target="_top" title="StatusComparator.html" xlink:actuate="onRequest" xlink:href="StatusComparator.html" xlink:show="new" xlink:title="StatusComparator.html" xlink:type="simple"><rect codeLine="5" fill="#FEFECE" filter="url(#f1o25es4a9h8iy)" height="58.7422" id="CarSharing.util.StatusComparator" style="stroke: #A80036; stroke-width: 1.5;" width="158" x="20" y="129"/><ellipse cx="35.45" cy="147.9688" fill="#ADD1B2" rx="11" ry="11" style="stroke: #A80036; stroke-width: 1.0;"/><path d="M38.4188,153.6094 Q37.8406,153.9063 37.2,154.0469 Q36.5594,154.2031 35.8563,154.2031 Q33.3563,154.2031 32.0281,152.5625 Q30.7156,150.9063 30.7156,147.7813 Q30.7156,144.6563 32.0281,143 Q33.3563,141.3438 35.8563,141.3438 Q36.5594,141.3438 37.2,141.5 Q37.8563,141.6563 38.4188,141.9531 L38.4188,144.6719 Q37.7938,144.0938 37.2,143.8281 Q36.6063,143.5469 35.9813,143.5469 Q34.6375,143.5469 33.95,144.625 Q33.2625,145.6875 33.2625,147.7813 Q33.2625,149.875 33.95,150.9531 Q34.6375,152.0156 35.9813,152.0156 Q36.6063,152.0156 37.2,151.75 Q37.7938,151.4688 38.4188,150.8906 L38.4188,153.6094 Z "/><text fill="#000000" font-family="sans-serif" font-size="14" lengthAdjust="spacingAndGlyphs" textLength="125" x="49.55" y="146.9951">StatusComparator</text><text fill="#000000" font-family="sans-serif" font-size="10" lengthAdjust="spacingAndGlyphs" textLength="72" x="76.05" y="159.5791">CarSharing.util</text><line style="stroke: #A80036; stroke-width: 1.5;" x1="21" x2="177" y1="166.9375" y2="166.9375"/><ellipse cx="31" cy="177.9375" fill="#84BE84" rx="3" ry="3" style="stroke: #038048; stroke-width: 1.0;"/><text fill="#000000" font-family="sans-serif" font-size="11" lengthAdjust="spacingAndGlyphs" textLength="132" x="40" y="181.1479">compare(Trip, Trip): int</text></a><!--MD5=[ab8fa349a1e2e86ca8104897b03d4899]
class java.util.Comparator--><rect codeLine="9" fill="#FEFECE" filter="url(#f1o25es4a9h8iy)" height="58.7422" id="java.util.Comparator" style="stroke: #A80036; stroke-width: 1.5;" width="158" x="20" y="10"/><ellipse cx="43.1" cy="28.9688" fill="#B4A7E5" rx="11" ry="11" style="stroke: #A80036; stroke-width: 1.0;"/><path d="M39.0219,24.7344 L39.0219,22.5781 L46.4125,22.5781 L46.4125,24.7344 L43.9438,24.7344 L43.9438,32.8125 L46.4125,32.8125 L46.4125,34.9688 L39.0219,34.9688 L39.0219,32.8125 L41.4906,32.8125 L41.4906,24.7344 L39.0219,24.7344 Z "/><text fill="#000000" font-family="sans-serif" font-size="14" font-style="italic" lengthAdjust="spacingAndGlyphs" textLength="81" x="58.9" y="27.9951">Comparator</text><text fill="#000000" font-family="sans-serif" font-size="10" font-style="italic" lengthAdjust="spacingAndGlyphs" textLength="40" x="79.4" y="40.5791">java.util</text><rect fill="#FFFFFF" height="15.9688" style="stroke: #000000; stroke-width: 1.0; stroke-dasharray: 2.0,2.0;" width="25" x="156" y="7"/><text fill="#000000" font-family="sans-serif" font-size="12" font-style="italic" lengthAdjust="spacingAndGlyphs" textLength="23" x="157" y="19.1387">Trip</text><line style="stroke: #A80036; stroke-width: 1.5;" x1="21" x2="177" y1="47.9375" y2="47.9375"/><ellipse cx="31" cy="58.9375" fill="#84BE84" rx="3" ry="3" style="stroke: #038048; stroke-width: 1.0;"/><text fill="#000000" font-family="sans-serif" font-size="11" font-style="italic" lengthAdjust="spacingAndGlyphs" textLength="132" x="40" y="62.1479">compare(Trip, Trip): int</text><!--MD5=[dd10f041ca54dd4bbc703ec873ad6a21]
reverse link java.util.Comparator to CarSharing.util.StatusComparator--><path codeLine="13" d="M99,89.25 C99,102.7 99,116.86 99,128.77 " fill="none" id="java.util.Comparator-backto-CarSharing.util.StatusComparator" style="stroke: #A80036; stroke-width: 1.0; stroke-dasharray: 7.0,7.0;"/><polygon fill="none" points="92,89.12,99,69.12,106,89.12,92,89.12" style="stroke: #A80036; stroke-width: 1.0;"/><text fill="#888888" font-family="sans-serif" font-size="10" lengthAdjust="spacingAndGlyphs" textLength="192" x="0" y="210.0244">UMLDoclet 2.0.12, PlantUML 1.2020.16</text><!--MD5=[c174d3524c37698dc2cce2a5945977eb]
@startuml
    set namespaceSeparator none
    hide empty fields
    hide empty methods

    class "<size:14>StatusComparator\n<size:10>CarSharing.util" as CarSharing.util.StatusComparator [[StatusComparator.html]] {
        +compare(Trip, Trip): int
    }

    interface "<size:14>Comparator\n<size:10>java.util" as java.util.Comparator<Trip> {
        {abstract} +compare(Trip, Trip): int
    }

    java.util.Comparator <|.. CarSharing.util.StatusComparator

    center footer UMLDoclet 2.0.12, PlantUML 1.2020.16
@enduml

PlantUML version 1.2020.16(Sun Aug 23 22:20:43 CEST 2020)
(APACHE source distribution)
Java Runtime: OpenJDK Runtime Environment
JVM: OpenJDK 64-Bit Server VM
Default Encoding: ANSI_X3.4-1968
Language: en
Country: US
--></g></svg>