<?xml version="1.0" encoding="UTF-8" standalone="no"?><svg xmlns="http://www.w3.org/2000/svg" xmlns:xlink="http://www.w3.org/1999/xlink" contentScriptType="application/ecmascript" contentStyleType="text/css" height="257px" preserveAspectRatio="none" style="width:205px;height:257px;" version="1.1" viewBox="0 0 205 257" width="205px" zoomAndPan="magnify"><defs><filter height="300%" id="f1byu383vb7rs5" width="300%" x="-1" y="-1"><feGaussianBlur result="blurOut" stdDeviation="2.0"/><feColorMatrix in="blurOut" result="blurOut2" type="matrix" values="0 0 0 0 0 0 0 0 0 0 0 0 0 0 0 0 0 0 .4 0"/><feOffset dx="4.0" dy="4.0" in="blurOut2" result="blurOut3"/><feBlend in="SourceGraphic" in2="blurOut3" mode="normal"/></filter></defs><g><!--MD5=[4cac8ef97aebf10aac5d1ec2ffc5c02e]
class CarSharing.util.StatusMatcher--><a href="StatusMatcher.html" target="_top" title="StatusMatcher.html" xlink:actuate="onRequest" xlink:href="StatusMatcher.html" xlink:show="new" xlink:title="StatusMatcher.html" xlink:type="simple"><rect codeLine="5" fill="#FEFECE" filter="url(#f1byu383vb7rs5)" height="92.3516" id="CarSharing.util.StatusMatcher" style="stroke: #A80036; stroke-width: 1.5;" width="175" x="11.5" y="129"/><ellipse cx="45.85" cy="147.9688" fill="#ADD1B2" rx="11" ry="11" style="stroke: #A80036; stroke-width: 1.0;"/><path d="M48.8188,153.6094 Q48.2406,153.9063 47.6,154.0469 Q46.9594,154.2031 46.2563,154.2031 Q43.7563,154.2031 42.4281,152.5625 Q41.1156,150.9063 41.1156,147.7813 Q41.1156,144.6563 42.4281,143 Q43.7563,141.3438 46.2563,141.3438 Q46.9594,141.3438 47.6,141.5 Q48.2563,141.6563 48.8188,141.9531 L48.8188,144.6719 Q48.1938,144.0938 47.6,143.8281 Q47.0063,143.5469 46.3813,143.5469 Q45.0375,143.5469 44.35,144.625 Q43.6625,145.6875 43.6625,147.7813 Q43.6625,149.875 44.35,150.9531 Q45.0375,152.0156 46.3813,152.0156 Q47.0063,152.0156 47.6,151.75 Q48.1938,151.4688 48.8188,150.8906 L48.8188,153.6094 Z "/><text fill="#000000" font-family="sans-serif" font-size="14" lengthAdjust="spacingAndGlyphs" textLength="100" x="64.15" y="146.9951">StatusMatcher</text><text fill="#000000" font-family="sans-serif" font-size="10" lengthAdjust="spacingAndGlyphs" textLength="72" x="78.15" y="159.5791">CarSharing.util</text><line style="stroke: #A80036; stroke-width: 1.5;" x1="12.5" x2="185.5" y1="166.9375" y2="166.9375"/><rect fill="none" height="6" style="stroke: #C82930; stroke-width: 1.0;" width="6" x="19.5" y="174.9375"/><text fill="#000000" font-family="sans-serif" font-size="11" lengthAdjust="spacingAndGlyphs" textLength="103" x="31.5" y="181.1479">status: TripStatus</text><line style="stroke: #A80036; stroke-width: 1.5;" x1="12.5" x2="185.5" y1="187.7422" y2="187.7422"/><ellipse cx="22.5" cy="198.7422" fill="#84BE84" rx="3" ry="3" style="stroke: #038048; stroke-width: 1.0;"/><text fill="#000000" font-family="sans-serif" font-size="11" lengthAdjust="spacingAndGlyphs" textLength="149" x="31.5" y="201.9526">StatusMatcher(TripStatus)</text><ellipse cx="22.5" cy="211.5469" fill="#84BE84" rx="3" ry="3" style="stroke: #038048; stroke-width: 1.0;"/><text fill="#000000" font-family="sans-serif" font-size="11" lengthAdjust="spacingAndGlyphs" textLength="132" x="31.5" y="214.7573">matches(Trip): boolean</text></a><!--MD5=[e1e8d5e553819b81950e5f1bda6cea5f]
class CarSharing.provided.Matcher--><a href="../provided/Matcher.html" target="_top" title="../provided/Matcher.html" xlink:actuate="onRequest" xlink:href="../provided/Matcher.html" xlink:show="new" xlink:title="../provided/Matcher.html" xlink:type="simple"><rect codeLine="11" fill="#FEFECE" filter="url(#f1byu383vb7rs5)" height="58.7422" id="CarSharing.provided.Matcher" style="stroke: #A80036; stroke-width: 1.5;" width="159" x="19.5" y="10"/><ellipse cx="34.5" cy="28.9688" fill="#A9DCDF" rx="11" ry="11" style="stroke: #A80036; stroke-width: 1.0;"/><path d="M34.6094,24.3125 L33.4531,29.3906 L35.7813,29.3906 L34.6094,24.3125 Z M33.125,22.0781 L36.1094,22.0781 L39.4688,34.4688 L37.0156,34.4688 L36.25,31.4063 L32.9688,31.4063 L32.2188,34.4688 L29.7813,34.4688 L33.125,22.0781 Z "/><text fill="#000000" font-family="sans-serif" font-size="14" font-style="italic" lengthAdjust="spacingAndGlyphs" textLength="56" x="70.5" y="27.9951">Matcher</text><text fill="#000000" font-family="sans-serif" font-size="10" font-style="italic" lengthAdjust="spacingAndGlyphs" textLength="100" x="48.5" y="40.5791">CarSharing.provided</text><rect fill="#FFFFFF" height="15.9688" style="stroke: #000000; stroke-width: 1.0; stroke-dasharray: 2.0,2.0;" width="25" x="156.5" y="7"/><text fill="#000000" font-family="sans-serif" font-size="12" font-style="italic" lengthAdjust="spacingAndGlyphs" textLength="23" x="157.5" y="19.1387">Trip</text><line style="stroke: #A80036; stroke-width: 1.5;" x1="20.5" x2="177.5" y1="47.9375" y2="47.9375"/><ellipse cx="30.5" cy="58.9375" fill="#84BE84" rx="3" ry="3" style="stroke: #038048; stroke-width: 1.0;"/><text fill="#000000" font-family="sans-serif" font-size="11" font-style="italic" lengthAdjust="spacingAndGlyphs" textLength="131" x="39.5" y="62.1479">matches(Trip): boolean</text></a><!--MD5=[98d391995deb30490e2d757d96851465]
reverse link CarSharing.provided.Matcher to CarSharing.util.StatusMatcher--><path codeLine="15" d="M99,89.53 C99,102.4 99,116.21 99,128.86 " fill="none" id="CarSharing.provided.Matcher-backto-CarSharing.util.StatusMatcher" style="stroke: #A80036; stroke-width: 1.0;"/><polygon fill="none" points="92,89.14,99,69.14,106,89.14,92,89.14" style="stroke: #A80036; stroke-width: 1.0;"/><text fill="#888888" font-family="sans-serif" font-size="10" lengthAdjust="spacingAndGlyphs" textLength="192" x="0" y="243.6338">UMLDoclet 2.0.12, PlantUML 1.2020.16</text><!--MD5=[d84c3fc94e042c7954c4ed0462b2961d]
@startuml
    set namespaceSeparator none
    hide empty fields
    hide empty methods

    class "<size:14>StatusMatcher\n<size:10>CarSharing.util" as CarSharing.util.StatusMatcher [[StatusMatcher.html]] {
        -status: TripStatus
        +StatusMatcher(TripStatus)
        +matches(Trip): boolean
    }

    abstract class "<size:14>Matcher\n<size:10>CarSharing.provided" as CarSharing.provided.Matcher<Trip> [[../provided/Matcher.html]] {
        {abstract} +matches(Trip): boolean
    }

    CarSharing.provided.Matcher <|- - CarSharing.util.StatusMatcher

    center footer UMLDoclet 2.0.12, PlantUML 1.2020.16
@enduml

PlantUML version 1.2020.16(Sun Aug 23 22:20:43 CEST 2020)
(APACHE source distribution)
Java Runtime: OpenJDK Runtime Environment
JVM: OpenJDK 64-Bit Server VM
Default Encoding: ANSI_X3.4-1968
Language: en
Country: US
--></g></svg>