<?xml version="1.0" encoding="UTF-8" standalone="no"?><svg xmlns="http://www.w3.org/2000/svg" xmlns:xlink="http://www.w3.org/1999/xlink" contentScriptType="application/ecmascript" contentStyleType="text/css" height="884px" preserveAspectRatio="none" style="width:522px;height:884px;" version="1.1" viewBox="0 0 522 884" width="522px" zoomAndPan="magnify"><defs><filter height="300%" id="fbf2ooffw8zi0" width="300%" x="-1" y="-1"><feGaussianBlur result="blurOut" stdDeviation="2.0"/><feColorMatrix in="blurOut" result="blurOut2" type="matrix" values="0 0 0 0 0 0 0 0 0 0 0 0 0 0 0 0 0 0 .4 0"/><feOffset dx="4.0" dy="4.0" in="blurOut2" result="blurOut3"/><feBlend in="SourceGraphic" in2="blurOut3" mode="normal"/></filter></defs><g><!--MD5=[653a34cfd3ae7f2eca222da2f7a87352]
cluster CarSharing.entities--><polygon fill="#FFFFFF" filter="url(#fbf2ooffw8zi0)" points="16,151,173,151,180,173.2969,500,173.2969,500,856,16,856,16,151" style="stroke: #000000; stroke-width: 1.5;"/><line style="stroke: #000000; stroke-width: 1.5;" x1="16" x2="180" y1="173.2969" y2="173.2969"/><text fill="#000000" font-family="sans-serif" font-size="14" font-weight="bold" lengthAdjust="spacingAndGlyphs" textLength="151" x="20" y="165.9951">CarSharing.entities</text><!--MD5=[aa8f7b917213fcc1c2766e2d59b49067]
cluster java.lang--><polygon fill="#FFFFFF" filter="url(#fbf2ooffw8zi0)" points="178,6,253,6,260,28.2969,338,28.2969,338,118,178,118,178,6" style="stroke: #000000; stroke-width: 1.5;"/><line style="stroke: #000000; stroke-width: 1.5;" x1="178" x2="260" y1="28.2969" y2="28.2969"/><text fill="#000000" font-family="sans-serif" font-size="14" font-weight="bold" lengthAdjust="spacingAndGlyphs" textLength="69" x="182" y="20.9951">java.lang</text><!--MD5=[1466d9bb57f7805eaa28e25a8859339d]
class CarSharing.entities.Trip--><a href="Trip.html" target="_top" title="Trip.html" xlink:actuate="onRequest" xlink:href="Trip.html" xlink:show="new" xlink:title="Trip.html" xlink:type="simple"><rect codeLine="3" fill="#FEFECE" filter="url(#fbf2ooffw8zi0)" height="342.5078" id="CarSharing.entities.Trip" style="stroke: #A80036; stroke-width: 1.5;" width="453" x="31.5" y="186"/><ellipse cx="242.25" cy="202" fill="#ADD1B2" rx="11" ry="11" style="stroke: #A80036; stroke-width: 1.0;"/><path d="M245.2188,207.6406 Q244.6406,207.9375 244,208.0781 Q243.3594,208.2344 242.6563,208.2344 Q240.1563,208.2344 238.8281,206.5938 Q237.5156,204.9375 237.5156,201.8125 Q237.5156,198.6875 238.8281,197.0313 Q240.1563,195.375 242.6563,195.375 Q243.3594,195.375 244,195.5313 Q244.6563,195.6875 245.2188,195.9844 L245.2188,198.7031 Q244.5938,198.125 244,197.8594 Q243.4063,197.5781 242.7813,197.5781 Q241.4375,197.5781 240.75,198.6563 Q240.0625,199.7188 240.0625,201.8125 Q240.0625,203.9063 240.75,204.9844 Q241.4375,206.0469 242.7813,206.0469 Q243.4063,206.0469 244,205.7813 Q244.5938,205.5 245.2188,204.9219 L245.2188,207.6406 Z "/><text fill="#000000" font-family="sans-serif" font-size="12" lengthAdjust="spacingAndGlyphs" textLength="23" x="262.75" y="206.1543">Trip</text><line style="stroke: #A80036; stroke-width: 1.5;" x1="32.5" x2="483.5" y1="218" y2="218"/><rect fill="none" height="6" style="stroke: #C82930; stroke-width: 1.0;" width="6" x="39.5" y="226"/><text fill="#000000" font-family="sans-serif" font-size="11" lengthAdjust="spacingAndGlyphs" textLength="46" x="51.5" y="232.2104">car: Car</text><rect fill="none" height="6" style="stroke: #C82930; stroke-width: 1.0;" width="6" x="39.5" y="238.8047"/><text fill="#000000" font-family="sans-serif" font-size="11" lengthAdjust="spacingAndGlyphs" textLength="99" x="51.5" y="245.0151">renter: Customer</text><rect fill="none" height="6" style="stroke: #C82930; stroke-width: 1.0;" width="6" x="39.5" y="251.6094"/><text fill="#000000" font-family="sans-serif" font-size="11" lengthAdjust="spacingAndGlyphs" textLength="129" x="51.5" y="257.8198">startLocation: Location</text><rect fill="none" height="6" style="stroke: #C82930; stroke-width: 1.0;" width="6" x="39.5" y="264.4141"/><text fill="#000000" font-family="sans-serif" font-size="11" lengthAdjust="spacingAndGlyphs" textLength="123" x="51.5" y="270.6245">endLocation: Location</text><rect fill="none" height="6" style="stroke: #C82930; stroke-width: 1.0;" width="6" x="39.5" y="277.2188"/><text fill="#000000" font-family="sans-serif" font-size="11" lengthAdjust="spacingAndGlyphs" textLength="117" x="51.5" y="283.4292">startTime: DateTime</text><rect fill="none" height="6" style="stroke: #C82930; stroke-width: 1.0;" width="6" x="39.5" y="290.0234"/><text fill="#000000" font-family="sans-serif" font-size="11" lengthAdjust="spacingAndGlyphs" textLength="111" x="51.5" y="296.2339">endTime: DateTime</text><rect fill="none" height="6" style="stroke: #C82930; stroke-width: 1.0;" width="6" x="39.5" y="302.8281"/><text fill="#000000" font-family="sans-serif" font-size="11" lengthAdjust="spacingAndGlyphs" textLength="103" x="51.5" y="309.0386">status: TripStatus</text><rect fill="none" height="6" style="stroke: #C82930; stroke-width: 1.0;" width="6" x="39.5" y="315.6328"/><text fill="#000000" font-family="sans-serif" font-size="11" lengthAdjust="spacingAndGlyphs" textLength="94" x="51.5" y="321.8433">distance: double</text><line style="stroke: #A80036; stroke-width: 1.5;" x1="32.5" x2="483.5" y1="328.4375" y2="328.4375"/><ellipse cx="42.5" cy="339.4375" fill="#84BE84" rx="3" ry="3" style="stroke: #038048; stroke-width: 1.0;"/><text fill="#000000" font-family="sans-serif" font-size="11" lengthAdjust="spacingAndGlyphs" textLength="147" x="51.5" y="342.6479">Trip(Car, Customer, Rate)</text><ellipse cx="42.5" cy="352.2422" fill="#84BE84" rx="3" ry="3" style="stroke: #038048; stroke-width: 1.0;"/><text fill="#000000" font-family="sans-serif" font-size="11" lengthAdjust="spacingAndGlyphs" textLength="264" x="51.5" y="355.4526">Trip(Car, Customer, Rate, Location, DateTime)</text><ellipse cx="42.5" cy="365.0469" fill="#84BE84" rx="3" ry="3" style="stroke: #038048; stroke-width: 1.0;"/><text fill="#000000" font-family="sans-serif" font-size="11" lengthAdjust="spacingAndGlyphs" textLength="427" x="51.5" y="368.2573">Trip(Car, Customer, Rate, Location, DateTime, Location, DateTime, double)</text><ellipse cx="42.5" cy="377.8516" fill="#84BE84" rx="3" ry="3" style="stroke: #038048; stroke-width: 1.0;"/><text fill="#000000" font-family="sans-serif" font-size="11" lengthAdjust="spacingAndGlyphs" textLength="52" x="51.5" y="381.062">Trip(Trip)</text><ellipse cx="42.5" cy="390.6563" fill="#84BE84" rx="3" ry="3" style="stroke: #038048; stroke-width: 1.0;"/><text fill="#000000" font-family="sans-serif" font-size="11" lengthAdjust="spacingAndGlyphs" textLength="174" x="51.5" y="393.8667">start(Location, DateTime): Trip</text><ellipse cx="42.5" cy="403.4609" fill="#84BE84" rx="3" ry="3" style="stroke: #038048; stroke-width: 1.0;"/><text fill="#000000" font-family="sans-serif" font-size="11" lengthAdjust="spacingAndGlyphs" textLength="214" x="51.5" y="406.6714">end(Location, DateTime, double): Trip</text><ellipse cx="42.5" cy="416.2656" fill="#84BE84" rx="3" ry="3" style="stroke: #038048; stroke-width: 1.0;"/><text fill="#000000" font-family="sans-serif" font-size="11" lengthAdjust="spacingAndGlyphs" textLength="55" x="51.5" y="419.4761">total(): int</text><ellipse cx="42.5" cy="429.0703" fill="#84BE84" rx="3" ry="3" style="stroke: #038048; stroke-width: 1.0;"/><text fill="#000000" font-family="sans-serif" font-size="11" lengthAdjust="spacingAndGlyphs" textLength="116" x="51.5" y="432.2808">compareTo(Trip): int</text><ellipse cx="42.5" cy="441.875" fill="#84BE84" rx="3" ry="3" style="stroke: #038048; stroke-width: 1.0;"/><text fill="#000000" font-family="sans-serif" font-size="11" lengthAdjust="spacingAndGlyphs" textLength="156" x="51.5" y="445.0854">getStartLocation(): Location</text><ellipse cx="42.5" cy="454.6797" fill="#84BE84" rx="3" ry="3" style="stroke: #038048; stroke-width: 1.0;"/><text fill="#000000" font-family="sans-serif" font-size="11" lengthAdjust="spacingAndGlyphs" textLength="149" x="51.5" y="457.8901">getEndLocation(): Location</text><ellipse cx="42.5" cy="467.4844" fill="#84BE84" rx="3" ry="3" style="stroke: #038048; stroke-width: 1.0;"/><text fill="#000000" font-family="sans-serif" font-size="11" lengthAdjust="spacingAndGlyphs" textLength="144" x="51.5" y="470.6948">getStartTime(): DateTime</text><ellipse cx="42.5" cy="480.2891" fill="#84BE84" rx="3" ry="3" style="stroke: #038048; stroke-width: 1.0;"/><text fill="#000000" font-family="sans-serif" font-size="11" lengthAdjust="spacingAndGlyphs" textLength="137" x="51.5" y="483.4995">getEndTime(): DateTime</text><ellipse cx="42.5" cy="493.0938" fill="#84BE84" rx="3" ry="3" style="stroke: #038048; stroke-width: 1.0;"/><text fill="#000000" font-family="sans-serif" font-size="11" lengthAdjust="spacingAndGlyphs" textLength="121" x="51.5" y="496.3042">getDistance(): double</text><ellipse cx="42.5" cy="505.8984" fill="#84BE84" rx="3" ry="3" style="stroke: #038048; stroke-width: 1.0;"/><text fill="#000000" font-family="sans-serif" font-size="11" lengthAdjust="spacingAndGlyphs" textLength="130" x="51.5" y="509.1089">getStatus(): TripStatus</text><ellipse cx="42.5" cy="518.7031" fill="#84BE84" rx="3" ry="3" style="stroke: #038048; stroke-width: 1.0;"/><text fill="#000000" font-family="sans-serif" font-size="11" lengthAdjust="spacingAndGlyphs" textLength="77" x="51.5" y="521.9136">duration(): int</text></a><!--MD5=[ffff8152a874866b4d606b7ea32a2506]
class CarSharing.entities.PerMinuteRate--><a href="PerMinuteRate.html" target="_top" title="PerMinuteRate.html" xlink:actuate="onRequest" xlink:href="PerMinuteRate.html" xlink:show="new" xlink:title="PerMinuteRate.html" xlink:type="simple"><rect codeLine="29" fill="#FEFECE" filter="url(#fbf2ooffw8zi0)" height="86.4141" id="CarSharing.entities.PerMinuteRate" style="stroke: #A80036; stroke-width: 1.5;" width="129" x="99.5" y="741"/><ellipse cx="116.75" cy="757" fill="#ADD1B2" rx="11" ry="11" style="stroke: #A80036; stroke-width: 1.0;"/><path d="M119.7188,762.6406 Q119.1406,762.9375 118.5,763.0781 Q117.8594,763.2344 117.1563,763.2344 Q114.6563,763.2344 113.3281,761.5938 Q112.0156,759.9375 112.0156,756.8125 Q112.0156,753.6875 113.3281,752.0313 Q114.6563,750.375 117.1563,750.375 Q117.8594,750.375 118.5,750.5313 Q119.1563,750.6875 119.7188,750.9844 L119.7188,753.7031 Q119.0938,753.125 118.5,752.8594 Q117.9063,752.5781 117.2813,752.5781 Q115.9375,752.5781 115.25,753.6563 Q114.5625,754.7188 114.5625,756.8125 Q114.5625,758.9063 115.25,759.9844 Q115.9375,761.0469 117.2813,761.0469 Q117.9063,761.0469 118.5,760.7813 Q119.0938,760.5 119.7188,759.9219 L119.7188,762.6406 Z "/><text fill="#000000" font-family="sans-serif" font-size="12" lengthAdjust="spacingAndGlyphs" textLength="92" x="131.25" y="761.1543">PerMinuteRate</text><line style="stroke: #A80036; stroke-width: 1.5;" x1="100.5" x2="227.5" y1="773" y2="773"/><rect fill="none" height="6" style="stroke: #C82930; stroke-width: 1.0;" width="6" x="107.5" y="781"/><text fill="#000000" font-family="sans-serif" font-size="11" lengthAdjust="spacingAndGlyphs" textLength="78" x="119.5" y="787.2104">perMinute: int</text><line style="stroke: #A80036; stroke-width: 1.5;" x1="100.5" x2="227.5" y1="793.8047" y2="793.8047"/><ellipse cx="110.5" cy="804.8047" fill="#84BE84" rx="3" ry="3" style="stroke: #038048; stroke-width: 1.0;"/><text fill="#000000" font-family="sans-serif" font-size="11" lengthAdjust="spacingAndGlyphs" textLength="103" x="119.5" y="808.0151">PerMinuteRate(int)</text><ellipse cx="110.5" cy="817.6094" fill="#84BE84" rx="3" ry="3" style="stroke: #038048; stroke-width: 1.0;"/><text fill="#000000" font-family="sans-serif" font-size="11" lengthAdjust="spacingAndGlyphs" textLength="77" x="119.5" y="820.8198">total(Trip): int</text></a><!--MD5=[3b2bbaccdfbf4a6794bf0919d91eb6ff]
class CarSharing.entities.Rate--><a href="Rate.html" target="_top" title="Rate.html" xlink:actuate="onRequest" xlink:href="Rate.html" xlink:show="new" xlink:title="Rate.html" xlink:type="simple"><rect codeLine="35" fill="#FEFECE" filter="url(#fbf2ooffw8zi0)" height="60.8047" id="CarSharing.entities.Rate" style="stroke: #A80036; stroke-width: 1.5;" width="103" x="206.5" y="606"/><ellipse cx="240.4" cy="622" fill="#A9DCDF" rx="11" ry="11" style="stroke: #A80036; stroke-width: 1.0;"/><path d="M240.5094,617.3438 L239.3531,622.4219 L241.6813,622.4219 L240.5094,617.3438 Z M239.025,615.1094 L242.0094,615.1094 L245.3688,627.5 L242.9156,627.5 L242.15,624.4375 L238.8688,624.4375 L238.1188,627.5 L235.6813,627.5 L239.025,615.1094 Z "/><text fill="#000000" font-family="sans-serif" font-size="12" font-style="italic" lengthAdjust="spacingAndGlyphs" textLength="29" x="258.6" y="626.1543">Rate</text><line style="stroke: #A80036; stroke-width: 1.5;" x1="207.5" x2="308.5" y1="638" y2="638"/><line style="stroke: #A80036; stroke-width: 1.5;" x1="207.5" x2="308.5" y1="646" y2="646"/><ellipse cx="217.5" cy="657" fill="#84BE84" rx="3" ry="3" style="stroke: #038048; stroke-width: 1.0;"/><text fill="#000000" font-family="sans-serif" font-size="11" font-style="italic" lengthAdjust="spacingAndGlyphs" textLength="77" x="226.5" y="660.2104">total(Trip): int</text></a><!--MD5=[f8aae7b0e31d74ab7979cbbd51aff0a3]
class CarSharing.entities.LongTermRate--><a href="LongTermRate.html" target="_top" title="LongTermRate.html" xlink:actuate="onRequest" xlink:href="LongTermRate.html" xlink:show="new" xlink:title="LongTermRate.html" xlink:type="simple"><rect codeLine="39" fill="#FEFECE" filter="url(#fbf2ooffw8zi0)" height="112.0234" id="CarSharing.entities.LongTermRate" style="stroke: #A80036; stroke-width: 1.5;" width="152" x="264" y="728"/><ellipse cx="292.5" cy="744" fill="#ADD1B2" rx="11" ry="11" style="stroke: #A80036; stroke-width: 1.0;"/><path d="M295.4688,749.6406 Q294.8906,749.9375 294.25,750.0781 Q293.6094,750.2344 292.9063,750.2344 Q290.4063,750.2344 289.0781,748.5938 Q287.7656,746.9375 287.7656,743.8125 Q287.7656,740.6875 289.0781,739.0313 Q290.4063,737.375 292.9063,737.375 Q293.6094,737.375 294.25,737.5313 Q294.9063,737.6875 295.4688,737.9844 L295.4688,740.7031 Q294.8438,740.125 294.25,739.8594 Q293.6563,739.5781 293.0313,739.5781 Q291.6875,739.5781 291,740.6563 Q290.3125,741.7188 290.3125,743.8125 Q290.3125,745.9063 291,746.9844 Q291.6875,748.0469 293.0313,748.0469 Q293.6563,748.0469 294.25,747.7813 Q294.8438,747.5 295.4688,746.9219 L295.4688,749.6406 Z "/><text fill="#000000" font-family="sans-serif" font-size="12" lengthAdjust="spacingAndGlyphs" textLength="90" x="309.5" y="748.1543">LongTermRate</text><line style="stroke: #A80036; stroke-width: 1.5;" x1="265" x2="415" y1="760" y2="760"/><rect fill="none" height="6" style="stroke: #C82930; stroke-width: 1.0;" width="6" x="272" y="768"/><text fill="#000000" font-family="sans-serif" font-size="11" lengthAdjust="spacingAndGlyphs" textLength="98" x="284" y="774.2104">baseDuration: int</text><rect fill="none" height="6" style="stroke: #C82930; stroke-width: 1.0;" width="6" x="272" y="780.8047"/><text fill="#000000" font-family="sans-serif" font-size="11" lengthAdjust="spacingAndGlyphs" textLength="93" x="284" y="787.0151">baseAmount: int</text><rect fill="none" height="6" style="stroke: #C82930; stroke-width: 1.0;" width="6" x="272" y="793.6094"/><text fill="#000000" font-family="sans-serif" font-size="11" lengthAdjust="spacingAndGlyphs" textLength="62" x="284" y="799.8198">perDay: int</text><line style="stroke: #A80036; stroke-width: 1.5;" x1="265" x2="415" y1="806.4141" y2="806.4141"/><ellipse cx="275" cy="817.4141" fill="#84BE84" rx="3" ry="3" style="stroke: #038048; stroke-width: 1.0;"/><text fill="#000000" font-family="sans-serif" font-size="11" lengthAdjust="spacingAndGlyphs" textLength="126" x="284" y="820.6245">LongTermRate(int, int)</text><ellipse cx="275" cy="830.2188" fill="#84BE84" rx="3" ry="3" style="stroke: #038048; stroke-width: 1.0;"/><text fill="#000000" font-family="sans-serif" font-size="11" lengthAdjust="spacingAndGlyphs" textLength="77" x="284" y="833.4292">total(Trip): int</text></a><!--MD5=[008d82c49f85b4d489e041917c99c847]
class java.lang.Comparable--><rect codeLine="54" fill="#FEFECE" filter="url(#fbf2ooffw8zi0)" height="60.8047" id="java.lang.Comparable" style="stroke: #A80036; stroke-width: 1.5;" width="127" x="194.5" y="41"/><ellipse cx="213.55" cy="57" fill="#B4A7E5" rx="11" ry="11" style="stroke: #A80036; stroke-width: 1.0;"/><path d="M209.4719,52.7656 L209.4719,50.6094 L216.8625,50.6094 L216.8625,52.7656 L214.3938,52.7656 L214.3938,60.8438 L216.8625,60.8438 L216.8625,63 L209.4719,63 L209.4719,60.8438 L211.9406,60.8438 L211.9406,52.7656 L209.4719,52.7656 Z "/><text fill="#000000" font-family="sans-serif" font-size="12" font-style="italic" lengthAdjust="spacingAndGlyphs" textLength="75" x="228.45" y="61.1543">Comparable</text><rect fill="#FFFFFF" height="15.9688" style="stroke: #000000; stroke-width: 1.0; stroke-dasharray: 2.0,2.0;" width="9" x="315.5" y="38"/><text fill="#000000" font-family="sans-serif" font-size="12" font-style="italic" lengthAdjust="spacingAndGlyphs" textLength="7" x="316.5" y="50.1387">T</text><line style="stroke: #A80036; stroke-width: 1.5;" x1="195.5" x2="320.5" y1="73" y2="73"/><line style="stroke: #A80036; stroke-width: 1.5;" x1="195.5" x2="320.5" y1="81" y2="81"/><ellipse cx="205.5" cy="92" fill="#84BE84" rx="3" ry="3" style="stroke: #038048; stroke-width: 1.0;"/><text fill="#000000" font-family="sans-serif" font-size="11" font-style="italic" lengthAdjust="spacingAndGlyphs" textLength="101" x="214.5" y="95.2104">compareTo(T): int</text><!--MD5=[665675e1e6ede1988ec48aeb0a7332da]
reverse link java.lang.Comparable to CarSharing.entities.Trip--><path codeLine="47" d="M258,122.21 C258,140.61 258,162.67 258,185.78 " fill="none" id="java.lang.Comparable-backto-CarSharing.entities.Trip" style="stroke: #A80036; stroke-width: 1.0; stroke-dasharray: 7.0,7.0;"/><polygon fill="none" points="251,122.09,258,102.09,265,122.09,251,122.09" style="stroke: #A80036; stroke-width: 1.0;"/><!--MD5=[72946aeefb5ba0b4fcef69ea3d6c6f43]
link CarSharing.entities.Trip to CarSharing.entities.Rate--><path codeLine="48" d="M258,529.2 C258,556.27 258,581.6 258,600.74 " fill="none" id="CarSharing.entities.Trip-to-CarSharing.entities.Rate" style="stroke: #A80036; stroke-width: 1.0;"/><polygon fill="#A80036" points="258,605.97,262,596.97,258,600.97,254,596.97,258,605.97" style="stroke: #A80036; stroke-width: 1.0;"/><text fill="#000000" font-family="sans-serif" font-size="13" lengthAdjust="spacingAndGlyphs" textLength="26" x="259" y="572.0669">rate</text><!--MD5=[5dfe83e7641a5d7c4a72f436d2657fa1]
reverse link CarSharing.entities.Rate to CarSharing.entities.PerMinuteRate--><path codeLine="49" d="M227.87,684.13 C216.11,702.35 202.71,723.08 191.24,740.83 " fill="none" id="CarSharing.entities.Rate-backto-CarSharing.entities.PerMinuteRate" style="stroke: #A80036; stroke-width: 1.0;"/><polygon fill="none" points="222.02,680.3,238.75,667.3,233.78,687.89,222.02,680.3" style="stroke: #A80036; stroke-width: 1.0;"/><!--MD5=[22493bbf1ba0d29a5cd1f3f78a1e2b0e]
reverse link CarSharing.entities.Rate to CarSharing.entities.LongTermRate--><path codeLine="50" d="M284.74,684.95 C292.48,698.68 301,713.79 308.97,727.95 " fill="none" id="CarSharing.entities.Rate-backto-CarSharing.entities.LongTermRate" style="stroke: #A80036; stroke-width: 1.0;"/><polygon fill="none" points="278.51,688.16,274.79,667.3,290.71,681.28,278.51,688.16" style="stroke: #A80036; stroke-width: 1.0;"/><text fill="#888888" font-family="sans-serif" font-size="10" lengthAdjust="spacingAndGlyphs" textLength="192" x="156" y="871.2822">UMLDoclet 2.0.12, PlantUML 1.2020.16</text><!--MD5=[f2f4675de4e7d73f7846ebe460a5ceb2]
@startuml
    namespace CarSharing.entities {

        class Trip [[Trip.html]] {
            -car: Car
            -renter: Customer
            -startLocation: Location
            -endLocation: Location
            -startTime: DateTime
            -endTime: DateTime
            -status: TripStatus
            -distance: double
            +Trip(Car, Customer, Rate)
            +Trip(Car, Customer, Rate, Location, DateTime)
            +Trip(Car, Customer, Rate, Location, DateTime, Location, DateTime, double)
            +Trip(Trip)
            +start(Location, DateTime): Trip
            +end(Location, DateTime, double): Trip
            +total(): int
            +compareTo(Trip): int
            +getStartLocation(): Location
            +getEndLocation(): Location
            +getStartTime(): DateTime
            +getEndTime(): DateTime
            +getDistance(): double
            +getStatus(): TripStatus
            +duration(): int
        }

        class PerMinuteRate [[PerMinuteRate.html]] {
            -perMinute: int
            +PerMinuteRate(int)
            +total(Trip): int
        }

        abstract class Rate [[Rate.html]] {
            {abstract} +total(Trip): int
        }

        class LongTermRate [[LongTermRate.html]] {
            -baseDuration: int
            -baseAmount: int
            -perDay: int
            +LongTermRate(int, int)
            +total(Trip): int
        }

        java.lang.Comparable <|.. Trip
        Trip - -> Rate: rate
        Rate <|- - PerMinuteRate
        Rate <|- - LongTermRate
    }

    namespace java.lang {
        interface Comparable<T> {
            {abstract} +compareTo(T): int
        }
    }

    center footer UMLDoclet 2.0.12, PlantUML 1.2020.16
@enduml

PlantUML version 1.2020.16(Sun Aug 23 22:20:43 CEST 2020)
(APACHE source distribution)
Java Runtime: OpenJDK Runtime Environment
JVM: OpenJDK 64-Bit Server VM
Default Encoding: ANSI_X3.4-1968
Language: en
Country: US
--></g></svg>