<?xml version="1.0" encoding="UTF-8" standalone="no"?><svg xmlns="http://www.w3.org/2000/svg" xmlns:xlink="http://www.w3.org/1999/xlink" contentScriptType="application/ecmascript" contentStyleType="text/css" height="254px" preserveAspectRatio="none" style="width:204px;height:254px;" version="1.1" viewBox="0 0 204 254" width="204px" zoomAndPan="magnify"><defs><filter height="300%" id="f8yfynhfmaun4" width="300%" x="-1" y="-1"><feGaussianBlur result="blurOut" stdDeviation="2.0"/><feColorMatrix in="blurOut" result="blurOut2" type="matrix" values="0 0 0 0 0 0 0 0 0 0 0 0 0 0 0 0 0 0 .4 0"/><feOffset dx="4.0" dy="4.0" in="blurOut2" result="blurOut3"/><feBlend in="SourceGraphic" in2="blurOut3" mode="normal"/></filter></defs><g><!--MD5=[ffff8152a874866b4d606b7ea32a2506]
class CarSharing.entities.PerMinuteRate--><a href="PerMinuteRate.html" target="_top" title="PerMinuteRate.html" xlink:actuate="onRequest" xlink:href="PerMinuteRate.html" xlink:show="new" xlink:title="PerMinuteRate.html" xlink:type="simple"><rect codeLine="5" fill="#FEFECE" filter="url(#f8yfynhfmaun4)" height="92.3516" id="CarSharing.entities.PerMinuteRate" style="stroke: #A80036; stroke-width: 1.5;" width="134" x="32" y="126"/><ellipse cx="47" cy="144.9688" fill="#ADD1B2" rx="11" ry="11" style="stroke: #A80036; stroke-width: 1.0;"/><path d="M49.9688,150.6094 Q49.3906,150.9063 48.75,151.0469 Q48.1094,151.2031 47.4063,151.2031 Q44.9063,151.2031 43.5781,149.5625 Q42.2656,147.9063 42.2656,144.7813 Q42.2656,141.6563 43.5781,140 Q44.9063,138.3438 47.4063,138.3438 Q48.1094,138.3438 48.75,138.5 Q49.4063,138.6563 49.9688,138.9531 L49.9688,141.6719 Q49.3438,141.0938 48.75,140.8281 Q48.1563,140.5469 47.5313,140.5469 Q46.1875,140.5469 45.5,141.625 Q44.8125,142.6875 44.8125,144.7813 Q44.8125,146.875 45.5,147.9531 Q46.1875,149.0156 47.5313,149.0156 Q48.1563,149.0156 48.75,148.75 Q49.3438,148.4688 49.9688,147.8906 L49.9688,150.6094 Z "/><text fill="#000000" font-family="sans-serif" font-size="14" lengthAdjust="spacingAndGlyphs" textLength="102" x="61" y="143.9951">PerMinuteRate</text><text fill="#000000" font-family="sans-serif" font-size="10" lengthAdjust="spacingAndGlyphs" textLength="93" x="65.5" y="156.5791">CarSharing.entities</text><line style="stroke: #A80036; stroke-width: 1.5;" x1="33" x2="165" y1="163.9375" y2="163.9375"/><rect fill="none" height="6" style="stroke: #C82930; stroke-width: 1.0;" width="6" x="40" y="171.9375"/><text fill="#000000" font-family="sans-serif" font-size="11" lengthAdjust="spacingAndGlyphs" textLength="78" x="52" y="178.1479">perMinute: int</text><line style="stroke: #A80036; stroke-width: 1.5;" x1="33" x2="165" y1="184.7422" y2="184.7422"/><ellipse cx="43" cy="195.7422" fill="#84BE84" rx="3" ry="3" style="stroke: #038048; stroke-width: 1.0;"/><text fill="#000000" font-family="sans-serif" font-size="11" lengthAdjust="spacingAndGlyphs" textLength="103" x="52" y="198.9526">PerMinuteRate(int)</text><ellipse cx="43" cy="208.5469" fill="#84BE84" rx="3" ry="3" style="stroke: #038048; stroke-width: 1.0;"/><text fill="#000000" font-family="sans-serif" font-size="11" lengthAdjust="spacingAndGlyphs" textLength="77" x="52" y="211.7573">total(Trip): int</text></a><!--MD5=[3b2bbaccdfbf4a6794bf0919d91eb6ff]
class CarSharing.entities.Rate--><a href="Rate.html" target="_top" title="Rate.html" xlink:actuate="onRequest" xlink:href="Rate.html" xlink:show="new" xlink:title="Rate.html" xlink:type="simple"><rect codeLine="11" fill="#FEFECE" filter="url(#f8yfynhfmaun4)" height="58.7422" id="CarSharing.entities.Rate" style="stroke: #A80036; stroke-width: 1.5;" width="126" x="36" y="7"/><ellipse cx="51" cy="25.9688" fill="#A9DCDF" rx="11" ry="11" style="stroke: #A80036; stroke-width: 1.0;"/><path d="M51.1094,21.3125 L49.9531,26.3906 L52.2813,26.3906 L51.1094,21.3125 Z M49.625,19.0781 L52.6094,19.0781 L55.9688,31.4688 L53.5156,31.4688 L52.75,28.4063 L49.4688,28.4063 L48.7188,31.4688 L46.2813,31.4688 L49.625,19.0781 Z "/><text fill="#000000" font-family="sans-serif" font-size="14" font-style="italic" lengthAdjust="spacingAndGlyphs" textLength="32" x="96" y="24.9951">Rate</text><text fill="#000000" font-family="sans-serif" font-size="10" font-style="italic" lengthAdjust="spacingAndGlyphs" textLength="94" x="65" y="37.5791">CarSharing.entities</text><line style="stroke: #A80036; stroke-width: 1.5;" x1="37" x2="161" y1="44.9375" y2="44.9375"/><ellipse cx="47" cy="55.9375" fill="#84BE84" rx="3" ry="3" style="stroke: #038048; stroke-width: 1.0;"/><text fill="#000000" font-family="sans-serif" font-size="11" font-style="italic" lengthAdjust="spacingAndGlyphs" textLength="77" x="56" y="59.1479">total(Trip): int</text></a><!--MD5=[5dfe83e7641a5d7c4a72f436d2657fa1]
reverse link CarSharing.entities.Rate to CarSharing.entities.PerMinuteRate--><path codeLine="15" d="M99,86.53 C99,99.4 99,113.21 99,125.86 " fill="none" id="CarSharing.entities.Rate-backto-CarSharing.entities.PerMinuteRate" style="stroke: #A80036; stroke-width: 1.0;"/><polygon fill="none" points="92,86.14,99,66.14,106,86.14,92,86.14" style="stroke: #A80036; stroke-width: 1.0;"/><text fill="#888888" font-family="sans-serif" font-size="10" lengthAdjust="spacingAndGlyphs" textLength="192" x="0" y="240.6338">UMLDoclet 2.0.12, PlantUML 1.2020.16</text><!--MD5=[e273351570dfa78b0a9a3e88352006d7]
@startuml
    set namespaceSeparator none
    hide empty fields
    hide empty methods

    class "<size:14>PerMinuteRate\n<size:10>CarSharing.entities" as CarSharing.entities.PerMinuteRate [[PerMinuteRate.html]] {
        -perMinute: int
        +PerMinuteRate(int)
        +total(Trip): int
    }

    abstract class "<size:14>Rate\n<size:10>CarSharing.entities" as CarSharing.entities.Rate [[Rate.html]] {
        {abstract} +total(Trip): int
    }

    CarSharing.entities.Rate <|- - CarSharing.entities.PerMinuteRate

    center footer UMLDoclet 2.0.12, PlantUML 1.2020.16
@enduml

PlantUML version 1.2020.16(Sun Aug 23 22:20:43 CEST 2020)
(APACHE source distribution)
Java Runtime: OpenJDK Runtime Environment
JVM: OpenJDK 64-Bit Server VM
Default Encoding: ANSI_X3.4-1968
Language: en
Country: US
--></g></svg>