<?xml version="1.0" encoding="UTF-8" standalone="no"?><svg xmlns="http://www.w3.org/2000/svg" xmlns:xlink="http://www.w3.org/1999/xlink" contentScriptType="application/ecmascript" contentStyleType="text/css" height="248px" preserveAspectRatio="none" style="width:366px;height:248px;" version="1.1" viewBox="0 0 366 248" width="366px" zoomAndPan="magnify"><defs><filter height="300%" id="f13z4kwj851jj6" width="300%" x="-1" y="-1"><feGaussianBlur result="blurOut" stdDeviation="2.0"/><feColorMatrix in="blurOut" result="blurOut2" type="matrix" values="0 0 0 0 0 0 0 0 0 0 0 0 0 0 0 0 0 0 .4 0"/><feOffset dx="4.0" dy="4.0" in="blurOut2" result="blurOut3"/><feBlend in="SourceGraphic" in2="blurOut3" mode="normal"/></filter></defs><g><!--MD5=[d788dcb95f45a7f982638a642a3cc54f]
cluster CarSharing.app--><polygon fill="#FFFFFF" filter="url(#f13z4kwj851jj6)" points="16,6,143,6,150,28.2969,344,28.2969,344,220,16,220,16,6" style="stroke: #000000; stroke-width: 1.5;"/><line style="stroke: #000000; stroke-width: 1.5;" x1="16" x2="150" y1="28.2969" y2="28.2969"/><text fill="#000000" font-family="sans-serif" font-size="14" font-weight="bold" lengthAdjust="spacingAndGlyphs" textLength="121" x="20" y="20.9951">CarSharing.app</text><!--MD5=[56180b645369ad091380433ca1f27eb4]
class CarSharing.app.Main--><a href="Main.html" target="_top" title="Main.html" xlink:actuate="onRequest" xlink:href="Main.html" xlink:show="new" xlink:title="Main.html" xlink:type="simple"><rect codeLine="3" fill="#FEFECE" filter="url(#f13z4kwj851jj6)" height="163.2422" id="CarSharing.app.Main" style="stroke: #A80036; stroke-width: 1.5;" width="295" x="32.5" y="41"/><ellipse cx="161.25" cy="57" fill="#ADD1B2" rx="11" ry="11" style="stroke: #A80036; stroke-width: 1.0;"/><path d="M164.2188,62.6406 Q163.6406,62.9375 163,63.0781 Q162.3594,63.2344 161.6563,63.2344 Q159.1563,63.2344 157.8281,61.5938 Q156.5156,59.9375 156.5156,56.8125 Q156.5156,53.6875 157.8281,52.0313 Q159.1563,50.375 161.6563,50.375 Q162.3594,50.375 163,50.5313 Q163.6563,50.6875 164.2188,50.9844 L164.2188,53.7031 Q163.5938,53.125 163,52.8594 Q162.4063,52.5781 161.7813,52.5781 Q160.4375,52.5781 159.75,53.6563 Q159.0625,54.7188 159.0625,56.8125 Q159.0625,58.9063 159.75,59.9844 Q160.4375,61.0469 161.7813,61.0469 Q162.4063,61.0469 163,60.7813 Q163.5938,60.5 164.2188,59.9219 L164.2188,62.6406 Z "/><text fill="#000000" font-family="sans-serif" font-size="12" lengthAdjust="spacingAndGlyphs" textLength="29" x="181.75" y="61.1543">Main</text><line style="stroke: #A80036; stroke-width: 1.5;" x1="33.5" x2="326.5" y1="73" y2="73"/><rect fill="none" height="6" style="stroke: #C82930; stroke-width: 1.0;" width="6" x="40.5" y="81"/><text fill="#000000" font-family="sans-serif" font-size="11" lengthAdjust="spacingAndGlyphs" text-decoration="underline" textLength="91" x="52.5" y="87.2104">cars: List&lt;Car&gt;</text><rect fill="none" height="6" style="stroke: #C82930; stroke-width: 1.0;" width="6" x="40.5" y="93.8047"/><text fill="#000000" font-family="sans-serif" font-size="11" lengthAdjust="spacingAndGlyphs" text-decoration="underline" textLength="163" x="52.5" y="100.0151">customers: List&lt;Customer&gt;</text><rect fill="none" height="6" style="stroke: #C82930; stroke-width: 1.0;" width="6" x="40.5" y="106.6094"/><text fill="#000000" font-family="sans-serif" font-size="11" lengthAdjust="spacingAndGlyphs" text-decoration="underline" textLength="101" x="52.5" y="112.8198">rates: List&lt;Rate&gt;</text><rect fill="none" height="6" style="stroke: #C82930; stroke-width: 1.0;" width="6" x="40.5" y="119.4141"/><text fill="#000000" font-family="sans-serif" font-size="11" lengthAdjust="spacingAndGlyphs" text-decoration="underline" textLength="94" x="52.5" y="125.6245">trips: List&lt;Trip&gt;</text><line style="stroke: #A80036; stroke-width: 1.5;" x1="33.5" x2="326.5" y1="132.2188" y2="132.2188"/><ellipse cx="43.5" cy="143.2188" fill="#84BE84" rx="3" ry="3" style="stroke: #038048; stroke-width: 1.0;"/><text fill="#000000" font-family="sans-serif" font-size="11" lengthAdjust="spacingAndGlyphs" text-decoration="underline" textLength="109" x="52.5" y="146.4292">main(String[]): void</text><rect fill="#F24D5C" height="6" style="stroke: #C82930; stroke-width: 1.0;" width="6" x="40.5" y="153.0234"/><text fill="#000000" font-family="sans-serif" font-size="11" lengthAdjust="spacingAndGlyphs" text-decoration="underline" textLength="168" x="52.5" y="159.2339">export(List&lt;Trip&gt;, String): int</text><rect fill="#F24D5C" height="6" style="stroke: #C82930; stroke-width: 1.0;" width="6" x="40.5" y="165.8281"/><text fill="#000000" font-family="sans-serif" font-size="11" lengthAdjust="spacingAndGlyphs" text-decoration="underline" textLength="255" x="52.5" y="172.0386">filter(List&lt;Trip&gt;, Matcher&lt;Trip&gt;): List&lt;Trip&gt;</text><rect fill="#F24D5C" height="6" style="stroke: #C82930; stroke-width: 1.0;" width="6" x="40.5" y="178.6328"/><text fill="#000000" font-family="sans-serif" font-size="11" lengthAdjust="spacingAndGlyphs" text-decoration="underline" textLength="269" x="52.5" y="184.8433">tabularPrint(List&lt;Trip&gt;, Formatter&lt;Trip&gt;): void</text><rect fill="#F24D5C" height="6" style="stroke: #C82930; stroke-width: 1.0;" width="6" x="40.5" y="191.4375"/><text fill="#000000" font-family="sans-serif" font-size="11" lengthAdjust="spacingAndGlyphs" text-decoration="underline" textLength="165" x="52.5" y="197.6479">tabularPrint(List&lt;Trip&gt;): void</text></a><text fill="#888888" font-family="sans-serif" font-size="10" lengthAdjust="spacingAndGlyphs" textLength="192" x="78" y="235.2822">UMLDoclet 2.0.12, PlantUML 1.2020.16</text><!--MD5=[1b099d7ebdb5db067462e04f09664dab]
@startuml
    namespace CarSharing.app {

        class Main [[Main.html]] {
            {static} -cars: List<Car>
            {static} -customers: List<Customer>
            {static} -rates: List<Rate>
            {static} -trips: List<Trip>
            {static} +main(String[]): void
            {static} -export(List<Trip>, String): int
            {static} -filter(List<Trip>, Matcher<Trip>): List<Trip>
            {static} -tabularPrint(List<Trip>, Formatter<Trip>): void
            {static} -tabularPrint(List<Trip>): void
        }

    }

    center footer UMLDoclet 2.0.12, PlantUML 1.2020.16
@enduml

PlantUML version 1.2020.16(Sun Aug 23 22:20:43 CEST 2020)
(APACHE source distribution)
Java Runtime: OpenJDK Runtime Environment
JVM: OpenJDK 64-Bit Server VM
Default Encoding: ANSI_X3.4-1968
Language: en
Country: US
--></g></svg>